<svg width="194" height="213" viewBox="0 0 194 213" fill="none" xmlns="http://www.w3.org/2000/svg">
<path d="M144.644 100.024L145.543 101.463C145.889 102.017 146.095 102.647 146.141 103.298L150.961 170.777L183.666 136.106C184.433 135.293 184.825 134.195 184.746 133.079L180.856 78.1354C180.626 74.8846 176.813 73.2586 174.308 75.343L167.961 80.6238L144.644 100.024Z" fill="#D54068"/>
<path d="M143.217 97.7414L143.641 97.4764L143.63 97.4584L143.617 97.4414L143.217 97.7414ZM167.961 80.6238L168.281 81.0082L167.961 80.6238ZM184.746 133.079L184.248 133.114L184.746 133.079ZM183.666 136.106L183.302 135.763L183.666 136.106ZM174.308 75.343L174.628 75.7274L174.308 75.343ZM151.47 177.904L151.969 177.868L151.47 177.904ZM35.2174 178.354L34.7178 178.375L35.2174 178.354ZM122.179 69.6909L121.779 69.9909L122.179 69.6909ZM145.543 101.463L145.119 101.728L145.543 101.463ZM146.141 103.298L146.64 103.262L146.141 103.298ZM178.685 45.9248L179.163 46.0724L178.685 45.9248ZM12.2186 75.6828L11.8339 76.0021L12.2186 75.6828ZM32.3373 99.1338L12.6033 75.3634L11.8339 76.0021L31.5679 99.7726L32.3373 99.1338ZM121.779 69.9909L142.817 98.0414L143.617 97.4414L122.579 69.3909L121.779 69.9909ZM143.21 97.2415L31.9449 98.9533L31.9603 99.9532L143.225 98.2414L143.21 97.2415ZM31.453 99.4739L34.7178 178.375L35.717 178.333L32.4521 99.4325L31.453 99.4739ZM39.214 182.689H147.48V181.689H39.214V182.689ZM145.967 101.198L145.068 99.7588L144.22 100.289L145.119 101.728L145.967 101.198ZM145.068 99.7588L143.641 97.4764L142.793 98.0064L144.22 100.289L145.068 99.7588ZM180.358 78.1708L184.248 133.114L185.245 133.044L181.355 78.1001L180.358 78.1708ZM151.969 177.868L151.46 170.741L150.462 170.812L150.971 177.939L151.969 177.868ZM151.46 170.741L146.64 103.262L145.642 103.334L150.462 170.812L151.46 170.741ZM183.302 135.763L150.597 170.434L151.325 171.12L184.03 136.449L183.302 135.763ZM144.964 100.408L168.281 81.0082L167.641 80.2394L144.324 99.6394L144.964 100.408ZM168.281 81.0082L174.628 75.7274L173.988 74.9587L167.641 80.2394L168.281 81.0082ZM168.439 80.7714L179.163 46.0724L178.208 45.7772L167.483 80.4762L168.439 80.7714ZM174.813 40.244L80.9364 41.2929L80.9476 42.2928L174.825 41.2439L174.813 40.244ZM15.2612 69.6279L68.4752 69.0958L68.4652 68.0958L15.2512 68.628L15.2612 69.6279ZM68.4752 69.0958L118.944 68.5911L118.934 67.5911L68.4652 68.0958L68.4752 69.0958ZM76.7558 44.2597L68.0001 68.4255L68.9403 68.7661L77.696 44.6003L76.7558 44.2597ZM184.248 133.114C184.317 134.091 183.974 135.051 183.302 135.763L184.03 136.449C184.893 135.534 185.334 134.299 185.245 133.044L184.248 133.114ZM181.355 78.1001C181.096 74.4429 176.807 72.6137 173.988 74.9587L174.628 75.7274C176.82 73.9035 180.156 75.3262 180.358 78.1708L181.355 78.1001ZM147.48 182.689C150.092 182.689 152.155 180.473 151.969 177.868L150.971 177.939C151.116 179.965 149.511 181.689 147.48 181.689V182.689ZM34.7178 178.375C34.8176 180.785 36.8011 182.689 39.214 182.689V181.689C37.3373 181.689 35.7946 180.208 35.717 178.333L34.7178 178.375ZM80.9364 41.2929C79.0608 41.3138 77.3948 42.4961 76.7558 44.2597L77.696 44.6003C78.193 43.2286 79.4887 42.3091 80.9476 42.2928L80.9364 41.2929ZM122.579 69.3909C121.72 68.2451 120.367 67.5768 118.934 67.5911L118.944 68.5911C120.058 68.5799 121.111 69.0997 121.779 69.9909L122.579 69.3909ZM145.119 101.728C145.422 102.212 145.602 102.764 145.642 103.334L146.64 103.262C146.587 102.53 146.357 101.821 145.967 101.198L145.119 101.728ZM179.163 46.0724C180.064 43.1575 177.864 40.2099 174.813 40.244L174.825 41.2439C177.197 41.2174 178.908 43.5099 178.208 45.7772L179.163 46.0724ZM12.6033 75.3634C10.7202 73.0951 12.3134 69.6574 15.2612 69.6279L15.2512 68.628C11.4611 68.6659 9.41281 73.0858 11.8339 76.0021L12.6033 75.3634Z" fill="#404040"/>
<circle cx="127.811" cy="6.44709" r="5.20588" stroke="#A6A6A6"/>
<circle cx="191.147" cy="149.665" r="2.85294" fill="#404040"/>
<circle cx="17.6879" cy="108.582" r="2.35294" stroke="#A6A6A6"/>
<path d="M7.41765 161.647L9.08301 165.984H14.4722L10.1123 168.664L11.7776 173.001L7.41765 170.321L3.05766 173.001L4.72303 168.664L0.363046 165.984H5.75228L7.41765 161.647Z" fill="#404040"/>
<rect x="180.516" y="176.036" width="11.5529" height="9.27059" transform="rotate(34.281 180.516 176.036)" stroke="#C6C6C6"/>
<line x1="66.2675" y1="204.14" x2="71.9734" y2="212.128" stroke="#A6A6A6" stroke-width="3"/>
</svg>
