<svg width="340" height="340" viewBox="0 0 340 340" fill="none" xmlns="http://www.w3.org/2000/svg">
<rect width="340" height="340" fill="white"/>
<g clip-path="url(#clip0_441_1700)">
<path d="M325.19 340H15.2236C15.2236 339.81 15.2236 339.62 15.2236 339.433C15.4786 318.991 29.5008 295.902 29.5008 295.902L51.207 284.829L51.513 284.674L78.6903 270.81L79.1493 270.578L107.712 256.006L108.191 255.765L113.501 253.056C113.877 252.841 115.093 252.49 116.923 252.051C120.561 251.175 126.636 249.926 133.402 248.597L133.858 248.509C136.456 247.999 139.156 247.478 141.851 246.965C156.04 244.262 170.207 241.715 170.207 241.715C170.207 241.715 186.102 244.573 201.09 247.446C204.065 248.013 207.009 248.58 209.777 249.146L210.095 249.209C212.622 249.71 215.005 250.198 217.138 250.648C222.425 251.756 226.205 252.648 226.919 253.059L236.147 257.765L236.691 258.049L265.175 272.567L265.719 272.85L292.78 286.651L293.239 286.886L310.91 295.899C310.91 295.899 324.932 318.988 325.187 339.431C325.19 339.62 325.19 339.81 325.19 340Z" fill="#668BFF" stroke="black" stroke-width="5" stroke-miterlimit="10" stroke-linecap="round"/>
<path d="M142.067 235.835C139.545 237.516 127.367 253.153 137.236 256.255C147.104 259.358 198.348 265.237 209.268 253.056C213.889 247.177 199.609 235.416 199.609 235.416L142.067 235.835Z" fill="black"/>
<path d="M201.079 231.007H141.856V275.108H201.079V231.007Z" fill="#F2F2F2" stroke="black" stroke-width="5" stroke-linecap="round" stroke-linejoin="round"/>
<path d="M179.625 339.96H160.658C163.299 324.516 166.042 310.443 168.184 304.24C168.917 302.101 169.58 300.9 170.139 300.9C170.697 300.9 171.442 302.257 172.232 304.651C174.346 311.043 177.038 324.844 179.625 339.96Z" fill="#F2F2F2" stroke="black" stroke-width="5" stroke-linecap="round" stroke-linejoin="round"/>
<path d="M149.416 290.64C149.416 290.64 166.008 304.3 169.788 305.139C173.567 305.977 189.706 290.64 189.706 290.64L183.648 269.45H155.927L149.416 290.64Z" fill="#F2F2F2" stroke="black" stroke-width="5" stroke-linecap="round" stroke-linejoin="round"/>
<path d="M138.012 339.433L140.278 289.978L138.012 339.433Z" fill="#FF8159" stroke="black" stroke-width="5" stroke-linecap="round" stroke-linejoin="round"/>
<path d="M206.3 340L204.107 287.481L206.3 340Z" fill="#FF8159" stroke="black" stroke-width="5" stroke-linecap="round" stroke-linejoin="round"/>
<path d="M142.066 236.583C142.066 236.583 129.883 246.766 134.085 253.487C138.287 260.208 158.027 260.627 172.726 260.627C187.425 260.627 205.488 258.947 209.276 253.065C213.064 247.183 199.728 235.594 199.728 235.594L228.177 260.205C231.537 271.966 191.216 295.905 191.216 295.905L183.648 269.45L157.188 269.028L147.54 295.899C147.54 295.899 109.027 266.333 113.926 253.898L142.066 236.583Z" fill="#668BFF" stroke="black" stroke-width="5" stroke-miterlimit="10" stroke-linecap="round"/>
<path d="M47.6482 339.433L47.5915 340H47.5547L47.5944 339.433L51.2069 284.829L47.6482 339.433Z" fill="#FF8159" stroke="black" stroke-width="5" stroke-linecap="round" stroke-linejoin="round"/>
<path d="M75.2368 339.433C75.2236 339.643 75.2095 339.832 75.1944 340H75.166L75.1944 339.433L78.6907 270.81C78.6907 270.81 75.9112 330.749 75.2368 339.433Z" fill="#FF8159" stroke="black" stroke-width="5" stroke-linecap="round" stroke-linejoin="round"/>
<path d="M104.261 339.433C104.247 339.643 104.233 339.833 104.222 340H104.19L104.216 339.433L107.712 256.009C107.712 256.009 104.879 329.755 104.261 339.433Z" fill="#FF8159" stroke="black" stroke-width="5" stroke-linecap="round" stroke-linejoin="round"/>
<path d="M296.721 340C296.704 339.83 293.239 286.886 293.239 286.886L296.721 340Z" fill="#FF8159" stroke="black" stroke-width="5" stroke-linecap="round" stroke-linejoin="round"/>
<path d="M269.119 340L265.172 272.567L269.119 340Z" stroke="black" stroke-width="5" stroke-linecap="round" stroke-linejoin="round"/>
<path d="M240.091 340L236.691 258.037L240.091 340Z" fill="#FF8159" stroke="black" stroke-width="5" stroke-linecap="round" stroke-linejoin="round"/>
<path d="M325.19 339.433C325.19 339.623 325.19 339.813 325.19 340H15.2236C15.2236 339.81 15.2236 339.62 15.2236 339.433H325.19Z" fill="#070606"/>
<path d="M172.454 307.632C171.358 308.012 170.188 308.133 169.037 307.986Z" fill="#FF8159"/>
<path d="M172.454 307.632C171.358 308.012 170.188 308.133 169.037 307.986" stroke="black" stroke-width="5" stroke-linecap="round" stroke-linejoin="round"/>
<path d="M167.011 310.038C168.367 310.338 169.743 310.548 171.128 310.664Z" fill="#FF8159"/>
<path d="M167.011 310.038C168.367 310.338 169.743 310.548 171.128 310.664" stroke="black" stroke-width="5" stroke-linecap="round" stroke-linejoin="round"/>
<path d="M235.602 141.851C235.602 141.851 253.532 140.494 253.532 157.718C253.532 174.941 233.443 181.478 233.443 181.478L235.602 141.851Z" fill="#F2F2F2" stroke="black" stroke-width="5" stroke-linecap="round" stroke-linejoin="round"/>
<path d="M103.623 141.851C103.623 141.851 86.0566 140.494 86.0566 157.718C86.0566 174.941 105.777 181.475 105.777 181.475L103.623 141.851Z" fill="#F2F2F2" stroke="black" stroke-width="5" stroke-linecap="round" stroke-linejoin="round"/>
<path d="M237.83 152.464C237.83 201.764 219.768 241.714 169.788 241.714C119.808 241.714 101.745 201.764 101.745 152.464C101.745 103.164 117.705 59.8513 169.788 59.8513C221.87 59.8513 237.83 103.17 237.83 152.464Z" fill="#F2F2F2" stroke="black" stroke-width="5" stroke-linecap="round" stroke-linejoin="round"/>
<path d="M164.956 174.513C166.239 174.535 167.513 174.302 168.704 173.826C169.895 173.35 170.98 172.642 171.895 171.743C172.809 170.844 173.536 169.772 174.032 168.589C174.528 167.406 174.783 166.136 174.783 164.853C174.783 163.57 174.528 162.301 174.032 161.118C173.536 159.935 172.809 158.862 171.895 157.963C170.98 157.064 169.895 156.356 168.704 155.88C167.513 155.405 166.239 155.171 164.956 155.193V138.193" stroke="black" stroke-width="5" stroke-linecap="round" stroke-linejoin="round"/>
<path d="M137.235 76.4405C144.998 79.4268 189.736 80.2202 194.358 74.7603C194.358 74.7603 222.079 85.6828 220.399 102.901C218.719 120.119 233.432 159.604 235.517 150.784C237.603 141.964 237.147 141.134 240.742 141.97C244.338 142.806 251.31 133.733 246.44 107.95C243.08 80.2287 225.017 44.948 167.475 44.948C109.933 44.948 91.4538 95.3417 92.2896 114.662C93.1255 133.983 92.2896 138.604 98.1716 141.964C104.054 145.324 101.951 150.784 104.892 154.147C107.833 157.511 116.651 106.686 117.076 99.1242C117.501 91.562 131.775 74.341 137.235 76.4405Z" fill="#070606"/>
<path d="M186.94 148.546C186.94 140.576 207.377 140.576 207.377 148.546Z" fill="#F2F2F2"/>
<path d="M186.94 148.546C186.94 140.576 207.377 140.576 207.377 148.546" stroke="black" stroke-width="5" stroke-linecap="round" stroke-linejoin="round"/>
<path d="M128.883 148.546C128.883 140.576 149.32 140.576 149.32 148.546Z" fill="#F2F2F2"/>
<path d="M128.883 148.546C128.883 140.576 149.32 140.576 149.32 148.546" stroke="black" stroke-width="5" stroke-linecap="round" stroke-linejoin="round"/>
<path d="M122.343 133.847C125.459 125.729 153.509 125.321 155.858 133.847Z" fill="#F2F2F2"/>
<path d="M122.343 133.847C125.459 125.729 153.509 125.321 155.858 133.847" stroke="black" stroke-width="5" stroke-linecap="round" stroke-linejoin="round"/>
<path d="M213.917 133.847C210.8 125.729 182.75 125.321 180.401 133.847Z" fill="#F2F2F2"/>
<path d="M213.917 133.847C210.8 125.729 182.75 125.321 180.401 133.847" stroke="black" stroke-width="5" stroke-linecap="round" stroke-linejoin="round"/>
<path d="M146.475 177.245L137.235 181.444" stroke="black" stroke-width="5" stroke-linecap="round" stroke-linejoin="round"/>
<path d="M153.235 181.373L145.6 185.717" stroke="black" stroke-width="5.61" stroke-linecap="round" stroke-linejoin="round"/>
<path d="M188.094 177.245L197.336 181.444" stroke="black" stroke-width="5" stroke-linecap="round" stroke-linejoin="round"/>
<path d="M181.336 181.373L188.972 185.717" stroke="black" stroke-width="5.61" stroke-linecap="round" stroke-linejoin="round"/>
<path d="M142.066 191.533C142.066 209.91 197.509 209.851 197.509 191.533Z" fill="#F2F2F2"/>
<path d="M142.066 191.533C142.066 209.91 197.509 209.851 197.509 191.533" stroke="black" stroke-width="5" stroke-linecap="round" stroke-linejoin="round"/>
<path d="M218.96 194.576L228.29 202.368" stroke="black" stroke-width="6" stroke-linecap="round" stroke-linejoin="round"/>
<path d="M214.628 202.722L224.749 212.285" stroke="black" stroke-width="6" stroke-linecap="round" stroke-linejoin="round"/>
<path d="M210.296 208.743L217.487 219.439" stroke="black" stroke-width="6" stroke-linecap="round" stroke-linejoin="round"/>
<path d="M205.963 215.826L210.295 225.743" stroke="black" stroke-width="6" stroke-linecap="round" stroke-linejoin="round"/>
<path d="M199.662 220.785L204.193 231.376" stroke="black" stroke-width="6" stroke-linecap="round" stroke-linejoin="round"/>
<path d="M191.395 223.618L194.545 235.305" stroke="black" stroke-width="6" stroke-linecap="round" stroke-linejoin="round"/>
<path d="M181.942 226.097L185.031 238.756" stroke="black" stroke-width="6" stroke-linecap="round" stroke-linejoin="round"/>
<path d="M172.491 226.805L171.703 239.555" stroke="black" stroke-width="6" stroke-linecap="round" stroke-linejoin="round"/>
<path d="M160.676 225.035L159.035 239.556" stroke="black" stroke-width="6" stroke-linecap="round" stroke-linejoin="round"/>
<path d="M149.65 223.618L144.14 235.305" stroke="black" stroke-width="6" stroke-linecap="round" stroke-linejoin="round"/>
<path d="M140.199 219.368L130.753 229.404" stroke="black" stroke-width="6" stroke-linecap="round" stroke-linejoin="round"/>
<path d="M130.747 212.285L121.688 219.368" stroke="black" stroke-width="6" stroke-linecap="round" stroke-linejoin="round"/>
<path d="M124.445 204.493L114.6 208.389" stroke="black" stroke-width="6" stroke-linecap="round" stroke-linejoin="round"/>
<path d="M102.362 120.774L103.581 118.34" stroke="#F2F2F2" stroke-width="5" stroke-miterlimit="10" stroke-linecap="round"/>
<path d="M101.549 97.2314C102.6 96.9028 103.567 96.3487 104.382 95.6079" stroke="#F2F2F2" stroke-width="5" stroke-miterlimit="10" stroke-linecap="round"/>
<path d="M112.509 84.6487V87.0853" stroke="#F2F2F2" stroke-width="5" stroke-miterlimit="10" stroke-linecap="round"/>
<path d="M119 74.902C119.94 73.8517 120.639 72.6079 121.046 71.2583" stroke="#F2F2F2" stroke-width="5" stroke-miterlimit="10" stroke-linecap="round"/>
<path d="M133.221 66.3452C134.596 66.7009 135.849 67.4202 136.85 68.4277" stroke="#F2F2F2" stroke-width="5" stroke-miterlimit="10" stroke-linecap="round"/>
<path d="M152.24 56.5931L154.26 54.5559" stroke="#F2F2F2" stroke-width="5" stroke-miterlimit="10" stroke-linecap="round"/>
<path d="M154.295 68.0481L156.324 69.2664" stroke="#F2F2F2" stroke-width="5" stroke-miterlimit="10" stroke-linecap="round"/>
<path d="M169.328 71.6494L171.79 70.0684" stroke="#F2F2F2" stroke-width="5" stroke-miterlimit="10" stroke-linecap="round"/>
<path d="M168.223 61.4636L166.939 59.0637" stroke="#F2F2F2" stroke-width="5" stroke-miterlimit="10" stroke-linecap="round"/>
<path d="M193.724 69.6689L195.336 68.0369" stroke="#F2F2F2" stroke-width="5" stroke-miterlimit="10" stroke-linecap="round"/>
<path d="M187.224 59.874L186.476 58.616" stroke="#F2F2F2" stroke-width="5" stroke-miterlimit="10" stroke-linecap="round"/>
<path d="M212.336 66.3624C212.532 66.1135 212.782 65.9135 213.069 65.7783C213.355 65.6431 213.668 65.5763 213.985 65.5833" stroke="#F2F2F2" stroke-width="5" stroke-miterlimit="10" stroke-linecap="round"/>
<path d="M209.933 75.718L211.021 79.4014" stroke="#F2F2F2" stroke-width="5" stroke-miterlimit="10" stroke-linecap="round"/>
<path d="M226.973 82.2148H229.806" stroke="#F2F2F2" stroke-width="5" stroke-miterlimit="10" stroke-linecap="round"/>
<path d="M224.918 102.909C224.742 104.065 224.366 105.181 223.808 106.207" stroke="#F2F2F2" stroke-width="5" stroke-miterlimit="10" stroke-linecap="round"/>
<path d="M234.257 111.469L237.116 113.478" stroke="#F2F2F2" stroke-width="5" stroke-miterlimit="10" stroke-linecap="round"/>
<path d="M241.541 123.25L244.046 125.61" stroke="#F2F2F2" stroke-width="5" stroke-miterlimit="10" stroke-linecap="round"/>
<path d="M235.529 132.974L233.175 136.283" stroke="#F2F2F2" stroke-width="5" stroke-miterlimit="10" stroke-linecap="round"/>
<path d="M231.854 126.063C230.961 126.835 230.242 127.789 229.746 128.86" stroke="#F2F2F2" stroke-width="5" stroke-miterlimit="10" stroke-linecap="round"/>
<path d="M103.578 135.799C103.866 135.885 104.129 136.04 104.343 136.251C104.556 136.462 104.715 136.722 104.805 137.009" stroke="#F2F2F2" stroke-width="5" stroke-miterlimit="10" stroke-linecap="round"/>
<path d="M234.693 96.8349L237.124 94.8005" stroke="#F2F2F2" stroke-width="5" stroke-miterlimit="10" stroke-linecap="round"/>
<path d="M97.8975 107.383L99.9261 109.412" stroke="#F2F2F2" stroke-width="5" stroke-miterlimit="10" stroke-linecap="round"/>
</g>
<defs>
<clipPath id="clip0_441_1700">
<rect width="340" height="340" fill="white"/>
</clipPath>
</defs>
</svg>
