<svg width="340" height="340" viewBox="0 0 340 340" fill="none" xmlns="http://www.w3.org/2000/svg">
<rect width="340" height="340" fill="white"/>
<g clip-path="url(#clip0_441_1700)">
<path d="M310.799 340H29.2001C29.1989 339.983 29.1989 339.966 29.2001 339.949C29.6222 338.532 39.0686 307.031 42.8936 303.966C46.8092 300.832 123.964 272.232 123.964 272.232H216.022C216.022 272.232 293.176 300.821 297.092 303.966C300.92 307.031 310.363 338.532 310.785 339.949C310.794 339.983 310.799 340 310.799 340Z" fill="#F2F2F2" stroke="black" stroke-width="5" stroke-linecap="round" stroke-linejoin="round"/>
<path d="M285.549 340C286.767 336.847 289.612 330.769 292 326.29" stroke="black" stroke-width="5" stroke-linecap="round" stroke-linejoin="round"/>
<path d="M180.988 279.684C180.342 275.389 179.988 272.244 179.988 272.244H161.571C161.571 272.244 161.067 275.389 160.327 279.684" stroke="black" stroke-width="5" stroke-linecap="round" stroke-linejoin="round"/>
<path d="M179.987 272.244C179.987 272.244 175.876 291.434 170.589 291.434C165.302 291.434 161.579 272.244 161.579 272.244H179.987Z" fill="#668BFF" stroke="black" stroke-width="5" stroke-linecap="round" stroke-linejoin="round"/>
<path d="M183.033 340H160.752C160.752 339.983 160.752 339.969 160.752 339.949C162.169 317.566 164.906 291.434 170.581 291.434C175.355 291.434 179.823 317.481 183.03 339.949C183.033 339.966 183.033 339.983 183.033 340V340Z" fill="#668BFF" stroke="black" stroke-width="5" stroke-linecap="round" stroke-linejoin="round"/>
<path d="M142.131 267.543H140.431C134.592 267.543 139.598 262.5 141.213 260.885C142.389 259.712 142.389 259.318 136.907 260.103C131.424 260.888 123.981 272.244 123.981 272.244C122.173 273.414 150.221 297.931 153.354 297.31C154.442 297.095 162.951 272.439 162.951 272.439C162.951 272.439 179.01 272.048 179.401 272.439C179.792 272.83 183.56 297.31 187.051 297.31C192.151 297.31 216.033 272.244 216.033 272.244C216.033 272.244 208.202 262.452 206.244 260.494C204.286 258.536 203.11 258.536 199.977 259.318C201.935 262.843 207.808 267.535 202.717 267.535H141.998" fill="#F2F2F2"/>
<path d="M142.131 267.543H140.431C134.592 267.543 139.598 262.5 141.213 260.885C142.389 259.712 142.389 259.318 136.907 260.103C131.424 260.888 123.981 272.244 123.981 272.244C122.173 273.414 150.221 297.931 153.354 297.31C154.442 297.095 162.951 272.439 162.951 272.439C162.951 272.439 179.01 272.048 179.401 272.439C179.792 272.83 183.56 297.31 187.051 297.31C192.151 297.31 216.033 272.244 216.033 272.244C216.033 272.244 208.202 262.452 206.244 260.494C204.286 258.536 203.11 258.536 199.977 259.318C201.935 262.843 207.808 267.535 202.717 267.535H141.998" stroke="black" stroke-width="5" stroke-linecap="round" stroke-linejoin="round"/>
<path d="M43.6924 326.29C46.0809 330.769 48.9227 336.847 50.141 340" stroke="black" stroke-width="5" stroke-linecap="round" stroke-linejoin="round"/>
<path d="M203.878 265.2C204.955 266.86 201.648 267.914 200.217 267.339C199.705 266.285 199.571 261.281 200.353 261.281C201.135 261.281 203.025 263.098 203.878 265.2Z" fill="black"/>
<path d="M138.13 265.2C137.053 266.86 140.357 267.914 141.791 267.339C142.303 266.285 142.437 261.281 141.655 261.281C140.873 261.281 138.983 263.098 138.13 265.2Z" fill="black"/>
<path d="M122.117 167.544C122.117 167.544 102.802 164.917 102.802 184.11C102.802 203.303 123.981 202.192 123.981 202.192L122.117 167.544Z" fill="#F2F2F2" stroke="black" stroke-width="5" stroke-linecap="round" stroke-linejoin="round"/>
<path d="M220.062 167.544C220.062 167.544 239.023 164.917 239.023 184.11C239.023 203.303 219.28 202.192 219.28 202.192L220.062 167.544Z" fill="#F2F2F2" stroke="black" stroke-width="5" stroke-linecap="round" stroke-linejoin="round"/>
<path d="M199.704 246.5V267.532H142.131V246.395H144.655C154.311 250.56 165.622 253.64 173.224 253.64C181.146 253.64 191.051 250.832 199.704 246.5Z" fill="#F2F2F2" stroke="black" stroke-width="5" stroke-linecap="round" stroke-linejoin="round"/>
<path d="M221.485 160.506C221.485 160.959 221.233 185.059 220.697 196.523C219.81 215.529 218.025 232.186 214.611 236.017C210.902 239.941 205.596 243.573 199.705 246.5C191.052 250.821 181.147 253.629 173.225 253.629C165.617 253.629 154.312 250.549 144.656 246.384C137.417 243.27 131.093 239.53 127.965 236.017C122.457 229.834 121.094 161.367 121.094 161.361C121.094 161.356 119.476 127.135 145.328 111.469C171.179 95.8036 197.416 106.769 208.384 120.87C219.351 134.972 221.485 160.506 221.485 160.506Z" fill="#F2F2F2" stroke="black" stroke-width="5" stroke-linecap="round" stroke-linejoin="round"/>
<path d="M147.376 219.175C164.087 231.075 180.798 231.075 197.509 219.175Z" fill="#F2F2F2"/>
<path d="M147.376 219.175C164.087 231.075 180.798 231.075 197.509 219.175" stroke="black" stroke-width="5" stroke-linecap="round" stroke-linejoin="round"/>
<path d="M169.918 200.767C183.206 200.767 183.206 184.708 169.918 184.708Z" fill="#F2F2F2"/>
<path d="M169.918 200.767C183.206 200.767 183.206 184.708 169.918 184.708" stroke="black" stroke-width="5" stroke-linecap="round" stroke-linejoin="round"/>
<path d="M185.365 171C185.365 164.28 202.6 164.28 202.6 171Z" fill="#F2F2F2"/>
<path d="M185.365 171C185.365 164.28 202.6 164.28 202.6 171" stroke="black" stroke-width="5" stroke-linecap="round" stroke-linejoin="round"/>
<path d="M136.411 171C136.411 164.28 153.643 164.28 153.643 171Z" fill="#F2F2F2"/>
<path d="M136.411 171C136.411 164.28 153.643 164.28 153.643 171" stroke="black" stroke-width="5" stroke-linecap="round" stroke-linejoin="round"/>
<path d="M130.9 158.607C133.518 151.762 157.171 151.419 159.16 158.607Z" fill="#F2F2F2"/>
<path d="M130.9 158.607C133.518 151.762 157.171 151.419 159.16 158.607" stroke="black" stroke-width="5" stroke-linecap="round" stroke-linejoin="round"/>
<path d="M208.114 158.607C205.493 151.762 181.841 151.419 179.852 158.607Z" fill="#F2F2F2"/>
<path d="M208.114 158.607C205.493 151.762 181.841 151.419 179.852 158.607" stroke="black" stroke-width="5" stroke-linecap="round" stroke-linejoin="round"/>
<path d="M198.05 204.785L205.399 209.281" stroke="black" stroke-width="5" stroke-linecap="round" stroke-linejoin="round"/>
<path d="M142.284 207.035L138.368 212.126" stroke="black" stroke-width="5" stroke-linecap="round" stroke-linejoin="round"/>
<path d="M221.399 161.602C221.399 161.602 225.706 107.162 226.882 99.3282C228.058 91.4941 222.572 84.4447 218.665 84.8386C214.758 85.2324 211.616 85.6206 208.091 84.4447C204.567 83.2689 200.648 73.4797 199.875 73.8707C199.101 74.2617 193.607 78.9707 192.04 76.2196C190.474 73.4684 186.467 64.0787 183.725 65.6456C180.982 67.2124 176.766 74.6556 171.283 69.5641C165.801 64.4726 165.016 71.1281 162.276 72.6807C159.536 74.2334 157.176 71.8987 152.484 67.9831C147.792 64.0674 136.428 86.7822 136.428 86.7822C136.428 86.7822 131.328 81.2969 128.594 80.5149C125.859 79.7329 119.567 104.42 119.567 104.42C119.567 104.42 114.866 95.0216 113.299 100.895C111.732 106.769 121.133 161.602 121.133 161.602C121.133 161.602 125.44 119.303 140.715 117.736C155.989 116.17 163.432 141.236 170.782 141.236C178.132 141.236 187.323 117.736 200.637 118.518C213.951 119.3 221.399 161.602 221.399 161.602Z" fill="black" stroke="black" stroke-width="5" stroke-linecap="round" stroke-linejoin="round"/>
<path d="M213.406 107.038C214.015 116.19 214.256 127.135 214.075 136.303" stroke="#F2F2F2" stroke-width="2" stroke-linecap="round" stroke-linejoin="round"/>
<path d="M198.574 91.9956L201.337 118.589" stroke="#F2F2F2" stroke-width="2" stroke-linecap="round" stroke-linejoin="round"/>
<path d="M184.886 108.14C185.417 114.453 185.682 120.78 185.682 127.123" stroke="#F2F2F2" stroke-width="2" stroke-linecap="round" stroke-linejoin="round"/>
<path d="M168.742 104.074C170.924 115.676 171.292 131.078 172.108 142.857" stroke="#F2F2F2" stroke-width="2" stroke-linecap="round" stroke-linejoin="round"/>
<path d="M156.941 111.183C156.717 116.495 156.624 124.089 156.879 129.398" stroke="#F2F2F2" stroke-width="2" stroke-linecap="round" stroke-linejoin="round"/>
<path d="M145.013 95.9282C144.673 101.68 145.639 114.464 146.254 120.19" stroke="#F2F2F2" stroke-width="2" stroke-linecap="round" stroke-linejoin="round"/>
<path d="M127.817 101.363C128.574 109.605 129.88 120.139 131.025 128.336" stroke="#F2F2F2" stroke-width="2" stroke-linecap="round" stroke-linejoin="round"/>
<path d="M120.7 123.182C121.661 130.319 123.341 143.865 124.304 151.003" stroke="#F2F2F2" stroke-width="2" stroke-linecap="round" stroke-linejoin="round"/>
<path d="M127.837 80.5234C127.837 80.5234 131.024 90.0859 132.087 98.5859" stroke="#F2F2F2" stroke-width="2" stroke-linecap="round" stroke-linejoin="round"/>
<path d="M119.337 98.5859L124.295 120.19" stroke="#F2F2F2" stroke-width="2" stroke-linecap="round" stroke-linejoin="round"/>
<path d="M151.567 66.3567C150.15 69.8984 151.212 98.2317 151.567 103.898" stroke="#F2F2F2" stroke-width="2" stroke-linecap="round" stroke-linejoin="round"/>
<path d="M161.482 68.4817C161.482 73.0859 161.658 107.97 162.366 112.22" stroke="#F2F2F2" stroke-width="2" stroke-linecap="round" stroke-linejoin="round"/>
<path d="M176.004 68.4817C176.004 74.1484 177.242 110.803 176.888 114.699" stroke="#F2F2F2" stroke-width="2" stroke-linecap="round" stroke-linejoin="round"/>
<path d="M194.066 73.4402C192.649 78.3985 192.649 109.211 193.003 110.628" stroke="#F2F2F2" stroke-width="2" stroke-linecap="round" stroke-linejoin="round"/>
<path d="M208.233 78.7668C208.941 88.6835 208.054 110.463 207.7 114.713" stroke="#F2F2F2" stroke-width="2" stroke-linecap="round" stroke-linejoin="round"/>
<path d="M227.003 85.1277C226.649 94.336 222.045 120.899 222.399 124.44" stroke="#F2F2F2" stroke-width="2" stroke-linecap="round" stroke-linejoin="round"/>
<path d="M222.4 132.94C222.4 140.024 221.632 158.318 221.484 160.506" stroke="#F2F2F2" stroke-width="2" stroke-linecap="round" stroke-linejoin="round"/>
</g>
<defs>
<clipPath id="clip0_441_1700">
<rect width="340" height="340" fill="white"/>
</clipPath>
</defs>
</svg>
