<svg width="340" height="340" viewBox="0 0 340 340" fill="none" xmlns="http://www.w3.org/2000/svg">
<rect width="340" height="340" fill="white"/>
<g clip-path="url(#clip0_441_1700)">
<path d="M190.27 261.908V252.345H144.582V337.345H190.27V261.908Z" fill="#F2F2F2" stroke="black" stroke-width="5" stroke-linecap="round" stroke-linejoin="round"/>
<path d="M306.689 340H33.3115C36.8532 327.174 46.937 294.383 58.701 289.176C73.3154 282.733 136.173 264.463 136.788 264.282L143.517 262.259L143.262 262.925C143.228 263.018 143.188 263.12 143.143 263.239C142.724 264.325 141.842 266.62 139.975 271.456C139.975 271.476 139.961 271.493 139.958 271.51C139.913 271.62 139.873 271.734 139.839 271.844C138.952 274.485 139.372 277.202 140.485 279.797C141.019 281.011 141.662 282.174 142.406 283.271C143.077 284.274 143.803 285.24 144.579 286.164C146.414 288.3 148.403 290.299 150.529 292.145C150.66 292.264 150.787 292.377 150.912 292.485C150.912 292.485 150.912 292.485 150.935 292.502L152.374 293.766C152.599 293.964 152.81 294.178 153.006 294.406V294.406C153.025 294.424 153.042 294.444 153.057 294.466C154.144 295.807 154.918 297.374 155.323 299.053C155.322 299.068 155.322 299.083 155.323 299.098C155.62 300.246 155.782 301.426 155.805 302.611C155.854 303.939 155.645 305.264 155.19 306.513C154.618 308.19 154.357 309.958 154.42 311.729V311.791C154.49 316.296 155.989 320.878 156.649 322.694C156.648 322.703 156.648 322.713 156.649 322.722C156.834 323.227 156.95 323.513 156.95 323.513L166.453 333.367L166.512 333.43L167.314 329.418C167.396 329.027 167.481 328.59 167.575 328.114C167.773 327.876 167.954 327.635 168.124 327.386C172.179 321.521 169.116 313.551 168.997 313.251L174.664 297.667L174.698 297.636L182.892 290.269L185.289 288.113C187.065 287.294 188.726 285.917 190.247 284.232C190.641 283.798 191.023 283.345 191.395 282.877C192.189 281.872 192.932 280.826 193.619 279.744C198.05 272.85 200.688 264.633 200.688 264.633C200.688 264.633 285.711 284.858 291.737 292.018C296.517 297.693 303.858 327.817 306.689 340Z" fill="#668BFF" stroke="black" stroke-width="5" stroke-linecap="round" stroke-linejoin="round"/>
<path d="M181.704 291.015C184.957 287.759 188.853 295.199 187.79 297.676C186.728 300.152 184.838 305.116 184.838 305.116C184.838 305.116 199.832 293.783 200.54 290.241C201.248 286.699 202.311 276.426 202.311 266.866C202.311 266.866 201.178 261.908 190.238 261.908C194.553 264.033 196.409 273.737 194.579 277.916C192.748 282.095 181.704 291.015 181.704 291.015Z" fill="#668BFF" stroke="black" stroke-width="5" stroke-linecap="round" stroke-linejoin="round"/>
<path d="M153.082 294.491C147.769 293.426 145.432 301.506 146.353 304.408C147.274 307.309 148.574 311.613 148.574 311.613C148.574 311.613 134.844 297.188 133.127 293.463C131.478 289.884 130.293 285.161 131.124 274.301C131.124 274.301 132.928 261.381 144.582 262.259C139.808 264.327 138.941 275.054 140.53 279.948C142.12 284.841 153.082 294.491 153.082 294.491Z" fill="#668BFF" stroke="black" stroke-width="5" stroke-linecap="round" stroke-linejoin="round"/>
<path d="M190.448 261.199V283.552C190.448 283.552 194.982 281.599 195.188 271.935C195.395 262.27 190.448 261.199 190.448 261.199Z" fill="black"/>
<path d="M191.157 261.908C198.062 261.908 196.645 278.199 191.333 282.449C186.02 286.699 174.687 297.676 174.687 297.676L169.02 313.259C169.02 313.259 171.499 321.051 169.02 325.658C166.541 330.265 166.541 333.092 166.541 333.092" stroke="black" stroke-width="5" stroke-linecap="round" stroke-linejoin="round"/>
<path d="M150.221 291.833C152.02 293.774 157.687 298.024 155.207 306.524C152.728 315.024 156.978 323.167 156.978 323.524C156.978 323.881 166.541 333.441 166.541 333.441" stroke="black" stroke-width="5" stroke-linecap="round" stroke-linejoin="round"/>
<path d="M144.582 262.259V284.614C144.582 284.614 140.049 282.662 139.842 272.997C139.635 263.333 144.582 262.259 144.582 262.259Z" fill="black"/>
<path d="M59.2168 322.467C59.2168 322.467 65.2631 331.313 67.731 340" stroke="black" stroke-width="5" stroke-linecap="round" stroke-linejoin="round"/>
<path d="M268.455 340C270.929 331.313 276.955 322.467 276.955 322.467" stroke="black" stroke-width="5" stroke-linecap="round" stroke-linejoin="round"/>
<path d="M221.79 186.646C221.79 228.211 206.561 261.908 164.415 261.908C122.269 261.908 107.04 228.211 107.04 186.646C107.04 145.081 120.498 108.551 164.415 108.551C208.332 108.551 221.79 145.081 221.79 186.646Z" fill="#F2F2F2" stroke="black" stroke-width="5" stroke-linecap="round" stroke-linejoin="round"/>
<path d="M221.567 177.698C221.567 177.698 234.883 176.565 234.883 191.074C234.883 205.584 219.736 211.109 219.736 211.109L221.567 177.698Z" fill="#F2F2F2" stroke="black" stroke-width="5" stroke-linecap="round" stroke-linejoin="round"/>
<path d="M106.99 177.698C106.99 177.698 93.6729 176.565 93.6729 191.072C93.6729 205.578 108.8 211.109 108.8 211.109L106.99 177.698Z" fill="#F2F2F2" stroke="black" stroke-width="5" stroke-linecap="round" stroke-linejoin="round"/>
<path d="M141.04 181.158C143.387 181.158 145.29 179.255 145.29 176.908C145.29 174.561 143.387 172.658 141.04 172.658C138.693 172.658 136.79 174.561 136.79 176.908C136.79 179.255 138.693 181.158 141.04 181.158Z" fill="black"/>
<path d="M186.906 181.333C189.253 181.333 191.156 179.43 191.156 177.083C191.156 174.736 189.253 172.833 186.906 172.833C184.559 172.833 182.656 174.736 182.656 177.083C182.656 179.43 184.559 181.333 186.906 181.333Z" fill="black"/>
<path d="M123.156 166.104C126.807 152.703 134.127 149.751 145.115 157.25" stroke="black" stroke-width="8.23" stroke-linecap="round" stroke-linejoin="round"/>
<path d="M202.135 166.104C198.478 152.703 191.159 149.751 180.177 157.25" stroke="black" stroke-width="8.23" stroke-linecap="round" stroke-linejoin="round"/>
<path d="M164.415 188.949C162.255 188.949 160.183 189.808 158.655 191.335C157.128 192.863 156.27 194.935 156.27 197.095C156.27 199.256 157.128 201.328 158.655 202.855C160.183 204.383 162.255 205.241 164.415 205.241" stroke="black" stroke-width="5" stroke-linecap="round" stroke-linejoin="round"/>
<path d="M181.251 232.787C178.285 234.345 174.1 235.532 168.311 236.051C162.078 236.617 157.344 236.051 153.861 234.829C141.893 230.647 144.341 218.733 149.549 217.634C156.216 216.217 159.466 222.949 166.195 221.533C172.924 220.116 179.299 214.449 183.195 215.158C186.269 215.716 192.446 226.899 181.251 232.787Z" fill="black" stroke="black" stroke-width="5" stroke-linecap="round" stroke-linejoin="round"/>
<path d="M181.251 232.787C178.285 234.345 174.1 235.532 168.311 236.051C162.078 236.617 157.343 236.051 153.861 234.83C156.411 230.469 161.795 227.517 166.549 227.199C171.009 226.899 178.217 229.602 181.251 232.787Z" fill="#F2F2F2" stroke="black" stroke-width="5" stroke-linecap="round" stroke-linejoin="round"/>
<path d="M115.747 91.4515C117.22 89.6344 118.252 87.5008 118.762 85.2182C118.936 84.3915 119.179 83.5811 119.49 82.7957L111.993 84.5268C114.138 80.5743 116.546 76.3753 120.649 74.5932C122.734 73.6837 124.981 73.5165 127.256 73.7998C128.258 73.1724 129.309 72.6267 130.398 72.1678C133.271 70.9881 136.306 70.2515 139.4 69.9833C137.976 68.6732 136.691 67.2206 135.564 65.6483C140.573 67.3002 145.968 64.872 151.124 65.875C154.261 66.5281 157.034 68.3453 158.885 70.9608C161.463 71.2442 164.041 71.4708 166.628 71.5587C167.382 71.5842 168.136 71.5955 168.895 71.5983C170.745 69.8502 173.397 68.9407 175.995 68.6828C179.367 68.3513 182.795 68.935 186.195 69.0993C189.595 69.2637 193.177 68.9407 195.945 67.0338C194.741 69.002 193.194 70.738 191.377 72.1593C195.735 73.0093 199.965 74.6725 203.362 77.4662C205.239 77.6365 207.039 78.2884 208.59 79.3588C210.933 80.92 212.797 83.096 214.741 85.1445C216.685 87.193 218.801 89.1933 221.397 90.2303C219.804 91.258 217.982 91.877 216.093 92.0323C218.447 93.7323 221.014 95.1688 223.252 97.036C225.689 99.0675 227.284 101.81 228.613 104.785C230.715 104.403 232.923 104.051 234.963 104.785C238 105.896 239.788 109.083 241.117 112.07C242.445 115.056 243.718 118.329 246.412 120.162C241.627 119.924 237.017 118.282 233.161 115.439C234.051 117.18 235.197 118.779 236.561 120.182C241.726 125.321 242.341 133.464 241.357 140.582C240.374 147.699 238.147 154.717 238.89 161.914C238.946 162.431 239.012 162.951 239.088 163.472C240.127 164.439 240.876 165.676 241.253 167.045C241.845 169.059 241.836 171.179 242.103 173.253C242.369 175.327 242.989 177.503 244.519 178.939C242.164 178.755 239.919 177.867 238.076 176.389C237.456 177.211 236.622 177.848 235.665 178.228C234.249 178.795 232.651 178.696 231.132 178.815C223.054 179.432 216.158 186.578 215.73 194.769C213.018 186.246 215.396 177.202 216.971 168.538C218.28 161.336 218.815 153.272 215.753 146.738C214.96 148.16 213.772 149.32 212.333 150.079C213.786 148.614 214.429 146.526 214.444 144.387C214.121 143.894 213.769 143.421 213.395 142.95C206.267 134.017 201.696 123.42 194.704 114.402C191.87 116.702 190.788 120.958 192.14 124.477C190.119 123.086 188.447 121.249 187.253 119.106C186.059 116.964 185.375 114.576 185.255 112.126C183.759 118.484 177.497 123.199 170.986 122.87C172.714 121.609 174.158 119.999 175.225 118.144C176.291 116.29 176.956 114.232 177.177 112.104C174.239 110.534 171.17 109.081 167.912 108.607C164.653 108.134 161.134 108.763 158.743 110.959C156.352 113.155 155.448 117.096 157.205 119.955C155.946 119.695 154.771 119.132 153.779 118.314C152.788 117.497 152.011 116.451 151.515 115.266C151.038 114.087 150.862 112.808 151.005 111.545C151.148 110.281 151.605 109.074 152.334 108.032C146.557 108.432 142.262 113.246 138.935 117.949C135.609 122.652 132.263 127.891 126.862 129.874C128.358 126.867 129.851 123.861 131.339 120.856C127.409 120.995 124.086 123.902 122.253 127.373C120.419 130.843 119.776 134.83 119.037 138.72C118.297 142.61 118.065 145.786 115.716 148.906C112.429 153.261 111.613 158.823 111.749 164.489C111.749 164.529 111.749 164.571 111.749 164.611C111.854 167.362 112.099 170.107 112.483 172.833C113.568 181.098 114.821 190.035 110.851 197.172C110.31 192.256 105.468 188.105 100.614 188.414C98.3789 188.55 96.2114 189.493 93.9787 189.185C91.3834 188.816 89.2045 186.756 88.0145 184.368C86.8245 181.979 86.4619 179.285 86.2125 176.647C86.1814 176.333 86.153 176.015 86.1304 175.701L82.9032 177.367C84.2887 174.185 84.2292 170.541 84.4247 167.036C84.5522 164.688 84.8525 162.242 85.7337 160.12C85.8102 156.785 85.9802 153.459 86.1984 150.138C84.7955 151.356 83.2772 152.434 81.665 153.357C81.9795 146.418 82.3139 139.383 84.4474 132.844C85.983 128.143 88.5784 123.669 92.2164 120.485C92.6385 116.932 93.0154 113.379 94.5709 110.228C95.3143 108.759 96.2689 107.406 97.4042 106.213C96.0527 105.746 94.7794 105.077 93.6274 104.23C97.5374 101.096 101.464 97.9427 105.811 95.4465C108.903 93.6234 112.253 92.2766 115.747 91.4515V91.4515Z" fill="#F2F2F2"/>
<path d="M216.084 92.0408C218.438 93.7408 221.005 95.1773 223.244 97.0444C225.68 99.0759 227.276 101.819 228.604 104.794" stroke="black" stroke-width="5" stroke-linecap="round" stroke-linejoin="round"/>
<path d="M158.896 70.9692C161.474 71.2526 164.052 71.4792 166.639 71.5671C167.393 71.5926 168.146 71.6039 168.906 71.6067" stroke="black" stroke-width="5" stroke-linecap="round" stroke-linejoin="round"/>
<path d="M115.747 91.4515C117.22 89.6343 118.252 87.5008 118.762 85.2182C118.936 84.3915 119.179 83.5811 119.49 82.7957" stroke="black" stroke-width="5" stroke-linecap="round" stroke-linejoin="round"/>
<path d="M86.1981 150.13C85.9799 153.451 85.8099 156.777 85.7334 160.112" stroke="black" stroke-width="5" stroke-linecap="round" stroke-linejoin="round"/>
<path d="M233.151 115.438C234.042 117.18 235.188 118.779 236.551 120.181C241.717 125.321 242.331 133.464 241.348 140.581C240.365 147.699 238.138 154.717 238.88 161.914C238.937 162.431 239.003 162.951 239.079 163.472" stroke="black" stroke-width="5" stroke-linecap="round" stroke-linejoin="round"/>
<path d="M86.1328 175.687C86.1555 176.001 86.1838 176.318 86.215 176.633C86.4643 179.271 86.8241 181.962 88.017 184.354C89.2098 186.745 91.3858 188.802 93.9812 189.17C96.2138 189.479 98.3813 188.536 100.617 188.4C105.47 188.097 110.312 192.242 110.854 197.158C114.82 190.02 113.571 181.084 112.486 172.819C112.103 170.094 111.859 167.352 111.755 164.603C111.755 164.563 111.755 164.52 111.755 164.481C111.61 158.814 112.426 153.249 115.721 148.897C118.07 145.781 118.3 142.602 119.042 138.712C119.784 134.821 120.422 130.829 122.258 127.364C124.094 123.899 127.414 120.989 131.344 120.847C129.85 123.854 128.358 126.861 126.868 129.866C132.268 127.883 135.617 122.647 138.94 117.94C142.264 113.234 146.562 108.418 152.339 108.024C151.61 109.065 151.153 110.273 151.01 111.536C150.867 112.8 151.043 114.079 151.52 115.257C152.016 116.442 152.793 117.489 153.785 118.306C154.776 119.123 155.952 119.686 157.21 119.946C155.453 117.088 156.36 113.146 158.748 110.951C161.137 108.755 164.656 108.117 167.917 108.599C171.178 109.081 174.244 110.526 177.182 112.095C176.961 114.223 176.296 116.281 175.23 118.136C174.163 119.991 172.719 121.601 170.991 122.862C177.508 123.191 183.764 118.476 185.26 112.118C185.38 114.567 186.064 116.956 187.259 119.098C188.453 121.24 190.125 123.078 192.145 124.468C190.793 120.949 191.861 116.694 194.709 114.393C201.696 123.42 206.266 134.017 213.389 142.928C213.763 143.398 214.114 143.871 214.437 144.364" stroke="black" stroke-width="5" stroke-linecap="round" stroke-linejoin="round"/>
<path d="M215.747 146.724C218.81 153.258 218.274 161.321 216.965 168.524C215.39 177.197 212.999 186.232 215.724 194.755C216.152 186.564 223.048 179.418 231.126 178.8C232.656 178.681 234.243 178.766 235.66 178.214C236.617 177.833 237.451 177.197 238.071 176.375" stroke="black" stroke-width="5" stroke-linecap="round" stroke-linejoin="round"/>
<path d="M92.208 120.482C92.6302 116.929 93.007 113.376 94.5625 110.225C95.3059 108.756 96.2605 107.403 97.3958 106.21" stroke="black" stroke-width="5" stroke-linecap="round" stroke-linejoin="round"/>
<path d="M127.256 73.7999C128.258 73.1725 129.309 72.6267 130.398 72.1679C133.271 70.9882 136.306 70.2516 139.4 69.9834" stroke="black" stroke-width="5" stroke-linecap="round" stroke-linejoin="round"/>
<path d="M191.368 72.1677C195.726 73.0177 199.956 74.6809 203.353 77.4746" stroke="black" stroke-width="5" stroke-linecap="round" stroke-linejoin="round"/>
<path d="M177.335 76.4772C182.386 76.8457 187.391 75.3081 191.363 72.1677V72.1677C193.18 70.7464 194.727 69.0104 195.93 67.0422C193.162 68.9491 189.581 69.2692 186.181 69.1077C182.781 68.9462 179.364 68.3597 175.981 68.6912C173.383 68.9491 170.731 69.8586 168.881 71.6067C168.323 72.1296 167.845 72.732 167.464 73.3946" stroke="black" stroke-width="5" stroke-linecap="round" stroke-linejoin="round"/>
<path d="M160.397 73.7659C160.02 72.7726 159.515 71.8325 158.895 70.9694C157.045 68.3538 154.272 66.5366 151.135 65.8835C145.978 64.8805 140.584 67.3002 135.574 65.6569C136.698 67.2256 137.98 68.6753 139.399 69.9834V69.9834C142.598 72.9438 146.435 75.1289 150.614 76.3697" stroke="black" stroke-width="5" stroke-linecap="round" stroke-linejoin="round"/>
<path d="M135.663 76.3554C132.991 75.1937 130.104 74.1482 127.256 73.8054C124.99 73.5221 122.723 73.6893 120.649 74.5988C116.546 76.3809 114.132 80.5799 111.993 84.5324L119.49 82.8012C123.835 81.7926 128.187 80.7868 132.546 79.7838" stroke="black" stroke-width="5" stroke-linecap="round" stroke-linejoin="round"/>
<path d="M120.026 90.8538C118.586 90.936 117.155 91.136 115.747 91.4516C112.25 92.2747 108.896 93.6206 105.8 95.4438C101.448 97.9314 97.5205 101.085 93.6162 104.227C94.7682 105.074 96.0415 105.743 97.393 106.21C100.974 107.471 105.009 107.344 108.361 105.712" stroke="black" stroke-width="5" stroke-linecap="round" stroke-linejoin="round"/>
<path d="M96.9676 117.388C95.2374 118.177 93.6334 119.218 92.2076 120.476C88.5696 123.661 85.9742 128.126 84.4386 132.835C82.3051 139.375 81.9708 146.41 81.6562 153.349C83.2684 152.426 84.7867 151.348 86.1896 150.13V150.13C87.9515 148.6 89.5188 146.86 90.8561 144.948" stroke="black" stroke-width="5" stroke-linecap="round" stroke-linejoin="round"/>
<path d="M87.5075 157.25C86.7561 158.091 86.156 159.055 85.7338 160.1C84.8527 162.222 84.5523 164.668 84.4248 167.016C84.2293 170.521 84.2888 174.165 82.9033 177.347L86.139 175.675L95.03 171.085" stroke="black" stroke-width="5" stroke-linecap="round" stroke-linejoin="round"/>
<path d="M209.25 90.6666C211.346 91.7766 213.722 92.2502 216.084 92.0294C217.973 91.8741 219.795 91.2551 221.388 90.2274C218.792 89.1904 216.673 87.1929 214.732 85.1416C212.791 83.0903 210.924 80.9171 208.581 79.3559C207.031 78.2855 205.23 77.6336 203.354 77.4633C202.451 77.398 201.545 77.5087 200.685 77.7891" stroke="black" stroke-width="5" stroke-linecap="round" stroke-linejoin="round"/>
<path d="M205.739 125.491C206.657 128.39 208.408 130.954 210.086 133.504C211.763 136.054 213.426 138.692 214.126 141.65C214.336 142.539 214.44 143.45 214.438 144.364V144.364C214.423 146.503 213.78 148.591 212.327 150.056C213.766 149.297 214.954 148.137 215.747 146.716C216.88 144.792 217.515 142.449 217.872 140.199C218.495 136.289 218.654 132.121 220.705 128.801" stroke="black" stroke-width="5" stroke-linecap="round" stroke-linejoin="round"/>
<path d="M100.215 144.514C102.805 147.588 103.652 151.708 104.91 155.516C106.142 159.231 108.194 163.146 111.761 164.605C111.849 164.642 111.936 164.679 112.03 164.71C111.936 164.637 111.846 164.563 111.747 164.484C109.542 162.594 108.65 159.443 108.851 156.55C109.058 153.547 110.268 150.753 111.514 148.05C112.761 145.347 114.064 142.624 114.509 139.655" stroke="black" stroke-width="5" stroke-linecap="round" stroke-linejoin="round"/>
<path d="M230.837 134.059C233.563 138.972 232.942 145.483 229.355 149.577C232.095 148.707 235.002 147.73 236.756 145.446C238.578 143.072 238.756 139.78 238.541 136.734C238.326 133.688 237.779 130.571 238.433 127.613" stroke="black" stroke-width="5" stroke-linecap="round" stroke-linejoin="round"/>
<path d="M227.95 110.305C229.416 112.266 231.17 113.996 233.152 115.436V115.436C237.009 118.279 241.618 119.922 246.403 120.159C243.709 118.326 242.437 115.059 241.108 112.067C239.779 109.075 237.991 105.893 234.954 104.794C232.914 104.057 230.704 104.408 228.604 104.794C228.573 104.797 228.541 104.802 228.511 104.811C226.366 103.981 225.527 102.805 224.349 100.802" stroke="black" stroke-width="5" stroke-linecap="round" stroke-linejoin="round"/>
<path d="M233.509 169.073C234.108 171.977 235.731 174.568 238.082 176.375C239.925 177.852 242.17 178.741 244.525 178.925C242.995 177.48 242.377 175.31 242.108 173.238C241.839 171.167 241.844 169.045 241.258 167.031C240.882 165.662 240.132 164.425 239.093 163.458C238.58 162.997 237.971 162.653 237.311 162.452" stroke="black" stroke-width="5" stroke-linecap="round" stroke-linejoin="round"/>
<path d="M205.32 224.791L208.052 226.794" stroke="black" stroke-width="5" stroke-miterlimit="10" stroke-linecap="round"/>
<path d="M201.968 233.781L204.319 236.224" stroke="black" stroke-width="5" stroke-miterlimit="10" stroke-linecap="round"/>
<path d="M187.354 235.45L187.764 238.813" stroke="black" stroke-width="5" stroke-miterlimit="10" stroke-linecap="round"/>
<path d="M174.978 247.129L174.644 250.501" stroke="black" stroke-width="5" stroke-miterlimit="10" stroke-linecap="round"/>
<path d="M188.416 248.447L190.229 251.308" stroke="black" stroke-width="5" stroke-miterlimit="10" stroke-linecap="round"/>
<path d="M164.684 255.496L162.984 258.423" stroke="black" stroke-width="5" stroke-miterlimit="10" stroke-linecap="round"/>
<path d="M160.313 239.329L160.268 242.729" stroke="black" stroke-width="5" stroke-miterlimit="10" stroke-linecap="round"/>
<path d="M148.97 250.824L147.525 253.889" stroke="black" stroke-width="5" stroke-miterlimit="10" stroke-linecap="round"/>
<path d="M143.842 241.117L143.445 244.483" stroke="black" stroke-width="5" stroke-miterlimit="10" stroke-linecap="round"/>
<path d="M124.964 238.516L126.905 235.739" stroke="black" stroke-width="5" stroke-miterlimit="10" stroke-linecap="round"/>
<path d="M133.311 226.63L134.144 229.914" stroke="black" stroke-width="5" stroke-miterlimit="10" stroke-linecap="round"/>
<path d="M115.857 217.909L119.014 216.679" stroke="black" stroke-width="5" stroke-miterlimit="10" stroke-linecap="round"/>
<path d="M210.001 214.767L213.288 215.594" stroke="black" stroke-width="5" stroke-miterlimit="10" stroke-linecap="round"/>
<path d="M205.153 117.688C203.983 115.634 202.801 113.563 201.218 111.809C199.634 110.055 197.588 108.622 195.268 108.191" stroke="black" stroke-width="5" stroke-linecap="round" stroke-linejoin="round"/>
<path d="M203.376 85.6686C198.671 85.7431 193.967 85.4666 189.303 84.8413" stroke="black" stroke-width="5" stroke-linecap="round" stroke-linejoin="round"/>
<path d="M169.322 84.1925C170.246 83.2699 171.424 82.6427 172.705 82.3905C173.987 82.1382 175.314 82.2724 176.519 82.7758" stroke="black" stroke-width="5" stroke-linecap="round" stroke-linejoin="round"/>
<path d="M164.092 80.3251C162.178 80.5253 160.245 80.2106 158.493 79.4137C156.741 78.6167 155.234 77.3663 154.127 75.7917" stroke="black" stroke-width="5" stroke-linecap="round" stroke-linejoin="round"/>
<path d="M152.214 83.3284C145.468 80.4951 136.875 83.1018 132.846 89.2104" stroke="black" stroke-width="5" stroke-linecap="round" stroke-linejoin="round"/>
<path d="M125.167 93.9817C123.5 95.983 121.376 97.5535 118.974 98.5605C116.571 99.5675 113.962 99.9815 111.366 99.7674" stroke="black" stroke-width="5" stroke-linecap="round" stroke-linejoin="round"/>
<path d="M113.617 107.641C111.633 111.458 107.927 113.988 104.816 116.949C101.705 119.909 98.9655 124.046 99.9175 128.234" stroke="black" stroke-width="5" stroke-linecap="round" stroke-linejoin="round"/>
<path d="M94.6867 149.427C94.4186 152.985 93.068 156.375 90.8164 159.143" stroke="black" stroke-width="5" stroke-linecap="round" stroke-linejoin="round"/>
<path d="M103.059 169.405C102.719 171.122 103.529 172.865 104.564 174.273C105.598 175.681 106.881 176.919 107.723 178.455C108.564 179.99 108.879 181.985 107.904 183.436" stroke="black" stroke-width="5" stroke-linecap="round" stroke-linejoin="round"/>
<path d="M95.4404 183.742C96.1641 182.775 96.6728 181.664 96.9322 180.485C97.1917 179.305 97.196 178.084 96.9449 176.902" stroke="black" stroke-width="5" stroke-linecap="round" stroke-linejoin="round"/>
<path d="M108.771 141.627C109.455 136.354 111.417 131.327 114.486 126.984" stroke="black" stroke-width="5" stroke-linecap="round" stroke-linejoin="round"/>
<path d="M121.98 116.073C123.567 114.137 125.239 112.275 126.995 110.486" stroke="black" stroke-width="5" stroke-linecap="round" stroke-linejoin="round"/>
<path d="M139.729 108.568C138.354 112.088 136.572 115.435 134.419 118.541" stroke="black" stroke-width="5" stroke-linecap="round" stroke-linejoin="round"/>
<path d="M160.083 103.374C164.084 99.7332 170.875 100.541 174.646 96.6562" stroke="black" stroke-width="5" stroke-linecap="round" stroke-linejoin="round"/>
<path d="M175.256 105.78C175.126 105.317 174.846 104.912 174.459 104.628C174.073 104.344 173.602 104.198 173.122 104.213" stroke="black" stroke-width="5" stroke-linecap="round" stroke-linejoin="round"/>
<path d="M156.292 99.0448C151.995 99.4663 147.667 98.643 143.825 96.6733" stroke="black" stroke-width="5" stroke-linecap="round" stroke-linejoin="round"/>
<path d="M137.436 98.5149C135.878 100.964 134.66 103.614 133.815 106.392" stroke="black" stroke-width="5" stroke-linecap="round" stroke-linejoin="round"/>
<path d="M225.485 156.607C224.776 163.515 222.24 170.109 218.138 175.712" stroke="black" stroke-width="5" stroke-linecap="round" stroke-linejoin="round"/>
<path d="M218.075 117.277C219.874 119.393 220.95 122.027 221.147 124.797" stroke="black" stroke-width="5" stroke-linecap="round" stroke-linejoin="round"/>
<path d="M184.333 96.9963C186.846 96.5401 189.376 97.5998 191.623 98.8181C193.87 100.036 196.089 101.464 198.616 101.85" stroke="black" stroke-width="5" stroke-linecap="round" stroke-linejoin="round"/>
<path d="M204.464 100.11C205.575 101.674 206.731 103.275 208.32 104.343C209.91 105.411 212.08 105.85 213.766 104.932" stroke="black" stroke-width="5" stroke-linecap="round" stroke-linejoin="round"/>
</g>
<defs>
<clipPath id="clip0_441_1700">
<rect width="340" height="340" fill="white"/>
</clipPath>
</defs>
</svg>
