<svg width="340" height="340" viewBox="0 0 340 340" fill="none" xmlns="http://www.w3.org/2000/svg">
<rect width="340" height="340" fill="white"/>
<g clip-path="url(#clip0_441_1700)">
<path d="M296.412 339.572C296.412 339.572 39.2412 340.363 39.2412 339.796C39.2412 332.146 59.1595 298.744 59.1595 298.744C59.1595 298.744 127.99 262.565 143.573 261.344C143.856 261.321 144.114 261.31 144.358 261.31H144.925L190.045 261.429H190.255C190.302 261.426 190.35 261.426 190.397 261.429H190.68H190.683C191.856 261.515 193.02 261.704 194.159 261.996C214.032 266.812 274.02 299.333 274.02 299.333C279.193 301.949 296.412 339.572 296.412 339.572Z" fill="#668BFF" stroke="black" stroke-width="5" stroke-linecap="round" stroke-linejoin="round"/>
<path d="M190.059 251.946L189.94 297.622L166.429 305.561L144.822 296.664L144.936 253.201" fill="#F2F2F2"/>
<path d="M190.059 251.946L189.94 297.622L166.429 305.561L144.822 296.664L144.936 253.201" stroke="black" stroke-width="5" stroke-linecap="round" stroke-linejoin="round"/>
<path d="M144.336 262.758C144.336 262.758 136.453 268.201 137.983 274.984C139.513 281.767 140.72 286.121 145.245 288.513L144.336 262.758Z" fill="black"/>
<path d="M190.666 261.42C190.666 261.42 199.679 267.249 197.882 274.454C196.086 281.659 194.681 286.269 189.479 288.785L190.666 261.42Z" fill="black"/>
<path d="M190.383 261.418C193.604 265.042 202.441 266.518 195.239 283.487C192.213 290.618 169.949 296.075 169.949 296.075L166.549 305.468C166.549 305.468 194.763 301.926 203.204 293.993C211.644 286.059 203.855 261.092 190.383 261.418Z" fill="#668BFF" stroke="black" stroke-width="5" stroke-linecap="round" stroke-linejoin="round"/>
<path d="M144.783 261.302C141.541 264.908 134.662 267.422 139.399 283.342C141.589 290.709 162.363 296.288 162.363 296.288L166.551 305.561C166.551 305.561 139.77 301.784 131.372 293.808C122.974 285.833 131.31 260.905 144.783 261.302Z" fill="#668BFF" stroke="black" stroke-width="5" stroke-linecap="round" stroke-linejoin="round"/>
<path d="M166.257 339.751L166.345 305.53V305.524V305.348" stroke="black" stroke-width="6.02" stroke-linecap="round" stroke-linejoin="round"/>
<path d="M174.36 300.923C175.16 300.923 175.808 300.275 175.808 299.475C175.808 298.675 175.16 298.027 174.36 298.027C173.56 298.027 172.912 298.675 172.912 299.475C172.912 300.275 173.56 300.923 174.36 300.923Z" fill="black"/>
<path d="M158.783 300.883C159.582 300.883 160.231 300.235 160.231 299.435C160.231 298.636 159.582 297.988 158.783 297.988C157.983 297.988 157.335 298.636 157.335 299.435C157.335 300.235 157.983 300.883 158.783 300.883Z" fill="black"/>
<path d="M227.516 182.047C227.516 182.047 241.399 179.327 241.345 195.421C241.292 211.514 217.792 212.242 217.792 212.242C222.063 202.538 225.321 192.42 227.516 182.047Z" fill="#F2F2F2" stroke="black" stroke-width="5" stroke-linecap="round" stroke-linejoin="round"/>
<path d="M104.974 182.047C104.974 182.047 91.1051 179.327 91.1476 195.421C91.1901 211.514 114.701 212.242 114.701 212.242C110.428 202.539 107.169 192.42 104.974 182.047V182.047Z" fill="#F2F2F2" stroke="black" stroke-width="5" stroke-linecap="round" stroke-linejoin="round"/>
<path d="M229.999 162.761C229.908 199.402 202.291 262.032 166.249 261.928C130.206 261.823 102.932 199.059 103.026 162.418C103.119 125.777 130.642 100.204 166.679 100.3C202.716 100.396 230.089 126.12 229.999 162.761Z" fill="#F2F2F2" stroke="black" stroke-width="5" stroke-linecap="round" stroke-linejoin="round"/>
<path d="M140.11 186.938C142.458 186.938 144.36 185.035 144.36 182.688C144.36 180.341 142.458 178.438 140.11 178.438C137.763 178.438 135.86 180.341 135.86 182.688C135.86 185.035 137.763 186.938 140.11 186.938Z" fill="black"/>
<path d="M197.482 187.221C199.83 187.221 201.732 185.318 201.732 182.971C201.732 180.624 199.83 178.721 197.482 178.721C195.135 178.721 193.232 180.624 193.232 182.971C193.232 185.318 195.135 187.221 197.482 187.221Z" fill="black"/>
<path d="M211.792 201.529C212.95 194.826 206.335 190.8 200.637 195.188Z" fill="#F2F2F2"/>
<path d="M211.792 201.529C212.95 194.826 206.335 190.8 200.637 195.188" stroke="black" stroke-width="5" stroke-linecap="round" stroke-linejoin="round"/>
<path d="M125.123 201.529C123.964 194.826 130.58 190.8 136.275 195.188Z" fill="#F2F2F2"/>
<path d="M125.123 201.529C123.964 194.826 130.58 190.8 136.275 195.188" stroke="black" stroke-width="5" stroke-linecap="round" stroke-linejoin="round"/>
<path d="M166.351 208.313C180.631 208.349 180.676 191.092 166.393 191.055" stroke="black" stroke-width="5" stroke-linecap="round" stroke-linejoin="round"/>
<path d="M128.271 155.754C135.728 147.186 143.164 147.205 150.58 155.811" stroke="black" stroke-width="8.32" stroke-linecap="round" stroke-linejoin="round"/>
<path d="M184.679 155.901C192.14 147.333 199.577 147.352 206.991 155.958" stroke="black" stroke-width="8.32" stroke-linecap="round" stroke-linejoin="round"/>
<path d="M101.642 176.936C101.101 176.936 101.075 181.35 100.546 181.35C100.016 181.35 100.007 179.458 99.4633 179.455C98.9193 179.452 98.9193 179.14 98.3781 179.137C97.837 179.135 97.8455 174.321 97.3015 174.321C96.7575 174.321 96.7575 174.76 96.2135 174.757C95.6695 174.754 95.6666 175.961 95.1226 175.961C94.5786 175.961 94.573 178.188 94.029 178.185C93.485 178.183 93.4906 176.126 92.9495 176.126C92.4083 176.126 92.4055 175.482 91.8615 175.482C91.3175 175.482 91.2948 179.166 90.765 179.166C90.2351 179.166 90.1983 182.081 89.6685 182.081C89.1386 182.081 89.1358 176.93 88.5918 176.93" stroke="black" stroke-width="8.32" stroke-linecap="round" stroke-linejoin="round"/>
<path d="M113.35 211.769C112.854 212.015 112.248 210.8 111.752 211.046C111.256 211.293 110.449 209.678 109.953 209.913C109.457 210.148 109.908 211.063 109.412 211.31C108.916 211.556 108.208 210.14 107.712 210.386C107.216 210.633 111.052 218.305 110.545 218.555C110.038 218.804 107.358 213.418 106.862 213.664C106.366 213.911 108.913 219.005 108.417 219.255C107.922 219.504 105.913 215.486 105.417 215.733C104.921 215.979 107.018 220.175 106.522 220.425C106.026 220.674 105.323 219.26 104.822 219.51C104.32 219.759 104.082 219.274 103.587 219.51C103.091 219.745 101.379 216.331 100.884 216.58C100.388 216.829 102.637 221.331 102.142 221.578C101.646 221.824 99.4272 217.393 98.9314 217.642C98.4355 217.892 97.8717 216.764 97.373 217.013" stroke="black" stroke-width="8.32" stroke-linecap="round" stroke-linejoin="round"/>
<path d="M115.1 216.305C114.616 216.535 117.16 221.932 116.679 222.159C116.197 222.386 113.109 215.852 112.624 216.081C112.14 216.311 115.217 222.828 114.732 223.054C114.248 223.281 114.021 222.808 113.536 223.034C113.052 223.261 111.023 218.963 110.539 219.19C110.054 219.416 112.885 225.423 112.4 225.65C111.916 225.876 109.587 220.943 109.102 221.173C108.618 221.402 110.457 225.301 109.972 225.528C109.488 225.754 107.36 221.247 106.872 221.476C106.385 221.706 106.705 222.374 106.221 222.609C105.736 222.845 104.849 220.963 104.365 221.193C103.88 221.422 104.002 221.68 103.515 221.91C103.028 222.139 106.025 228.486 105.541 228.71C105.056 228.933 103.365 225.355 102.88 225.593C102.396 225.831 101.007 222.884 100.52 223.114C100.033 223.343 102.73 229.064 102.246 229.288" stroke="black" stroke-width="8.32" stroke-linecap="round" stroke-linejoin="round"/>
<path d="M100.164 169.15C99.6227 169.15 99.5972 166.869 99.0532 166.883C98.5092 166.898 98.4865 165.342 97.951 165.348C97.4155 165.353 97.4977 172.55 96.9565 172.55C96.4154 172.55 96.3899 169.589 95.8374 169.598C95.2849 169.606 95.333 172.598 94.7919 172.604C94.2507 172.61 94.2252 171.017 93.6869 171.023C93.1485 171.028 93.1202 169.484 92.5847 169.493C92.0492 169.501 92.0464 169.668 91.5052 169.677C90.964 169.685 90.9385 168.513 90.4059 168.521C89.8732 168.53 89.8789 169.793 89.3377 169.802C88.7965 169.81 88.7852 168.787 88.2412 168.796C87.6972 168.804 87.6745 166.637 87.1305 166.643C86.5865 166.648 86.6602 172.55 86.1162 172.55" stroke="black" stroke-width="8.32" stroke-linecap="round" stroke-linejoin="round"/>
<path d="M120.133 221.85C119.824 222.32 114.574 218.909 114.268 219.379C113.962 219.85 114.605 220.272 114.299 220.742C113.993 221.213 114.968 221.85 114.662 222.32C114.356 222.791 117.442 224.8 117.136 225.27C116.83 225.74 113.308 223.454 112.999 223.927C112.69 224.4 117.867 227.76 117.558 228.231C117.249 228.701 111.254 224.805 110.948 225.276C110.642 225.746 116.167 229.361 115.883 229.834C115.6 230.308 112.461 228.282 112.155 228.755C111.849 229.228 116.067 231.968 115.759 232.438C115.45 232.909 109.474 229.038 109.168 229.497C108.862 229.956 111.509 231.69 111.203 232.163C110.897 232.637 113.469 234.317 113.186 234.79C112.903 235.263 112.48 235.005 112.174 235.478C111.868 235.952 111.798 235.906 111.489 236.379" stroke="black" stroke-width="8.32" stroke-linecap="round" stroke-linejoin="round"/>
<path d="M100.246 166.033C99.7018 166.033 99.6622 162.614 99.1125 162.619C98.5628 162.625 98.577 163.064 98.0358 163.073C97.4947 163.081 97.4692 160.157 96.9167 160.163C96.3642 160.168 96.4095 162.767 95.8683 162.772C95.3272 162.778 95.364 166.008 94.8228 166.014C94.2817 166.019 94.1882 158.514 93.647 158.519C93.1058 158.525 93.0973 157.91 92.5562 157.916C92.015 157.922 92.1028 165.05 91.5617 165.056C91.0205 165.062 90.9242 157.488 90.383 157.497C89.8418 157.505 89.8588 158.769 89.3148 158.777C88.7708 158.786 88.8275 163.192 88.2863 163.197C87.7452 163.203 87.6828 158.213 87.1388 158.219C86.5948 158.225 86.6798 165.019 86.1387 165.036" stroke="black" stroke-width="8.32" stroke-linecap="round" stroke-linejoin="round"/>
<path d="M100.204 153.992C99.6624 153.992 99.6567 153.513 99.1155 153.519C98.5744 153.524 98.5489 151.685 98.0105 151.691C97.4722 151.697 97.5232 156.27 96.982 156.278C96.4409 156.287 96.3672 150.368 95.826 150.374C95.2849 150.379 95.3784 157.913 94.8372 157.919C94.296 157.924 94.3074 158.902 93.7662 158.908C93.225 158.913 93.123 150.773 92.5819 150.782C92.0407 150.79 92.1314 158.358 91.5902 158.364C91.049 158.369 90.9584 151.079 90.4172 151.085C89.876 151.09 89.9327 155.649 89.3915 155.655C88.8504 155.661 88.8532 156.162 88.312 156.168C87.7709 156.173 87.7935 158.058 87.2495 158.063C86.7055 158.069 86.6602 154.125 86.1162 154.133" stroke="black" stroke-width="8.32" stroke-linecap="round" stroke-linejoin="round"/>
<path d="M105.683 150.705C105.136 150.705 105.136 140.978 104.592 140.978C104.048 140.978 104.045 146.021 103.498 146.021C102.951 146.021 102.954 146.104 102.407 146.104C101.86 146.104 101.86 150.881 101.316 150.881C100.772 150.881 100.77 139.581 100.226 139.581C99.6816 139.581 99.6788 144.398 99.132 144.398C98.5851 144.398 98.588 141.729 98.0411 141.729C97.4943 141.729 97.4943 154.655 96.9503 154.655C96.4063 154.655 96.4035 140.553 95.8566 140.553C95.3098 140.553 95.3126 151.133 94.7658 151.133C94.219 151.133 94.2218 146.441 93.675 146.441C93.1281 146.441 93.1281 145.072 92.5841 145.072C92.0401 145.072 92.0373 142.196 91.4933 142.196C90.9493 142.196 90.9465 153.992 90.3996 153.992C89.8528 153.992 89.8556 154.176 89.3088 154.176C88.762 154.176 88.762 150.75 88.218 150.75C87.674 150.75 87.6711 143.684 87.1243 143.684C86.5775 143.684 86.5775 149.957 86.0306 149.957C85.4838 149.957 85.4866 148.206 84.9398 148.206C84.393 148.206 84.4043 145.35 83.866 145.35C83.3276 145.35 83.322 139.717 82.7751 139.717C82.2283 139.717 82.2283 154.232 81.6815 154.232C81.1346 154.232 81.1346 154.663 80.5878 154.663C80.041 154.663 80.041 146.809 79.4941 146.809" stroke="black" stroke-width="8.32" stroke-linecap="round" stroke-linejoin="round"/>
<path d="M103.022 162.633C102.49 162.495 101.039 168.073 100.506 167.935C99.9737 167.796 99.1662 170.898 98.6307 170.768C98.0952 170.638 102.127 155.122 101.592 154.983C101.056 154.845 101.039 154.915 100.506 154.777C99.9737 154.638 96.3811 168.442 95.8456 168.3C95.3101 168.158 96.5539 163.381 96.0212 163.243C95.4886 163.104 96.8882 157.709 96.3527 157.576C95.8172 157.443 96.8486 153.479 96.3131 153.34C95.7776 153.201 94.6867 157.403 94.1541 157.264C93.6214 157.125 94.5337 153.606 93.9982 153.468C93.4627 153.329 91.0062 162.795 90.4707 162.656C89.9352 162.517 90.5812 160.044 90.0457 159.905C89.5102 159.766 89.1957 160.984 88.6631 160.846C88.1304 160.707 86.6174 166.529 86.0819 166.39C85.5464 166.252 88.2041 156.035 87.6686 155.907C87.1331 155.78 84.7502 164.943 84.2176 164.804C83.6849 164.665 83.1919 166.555 82.6564 166.416C82.1209 166.277 85.2801 154.125 84.7474 153.986C84.2147 153.847 82.4609 160.588 81.9141 160.449C81.3672 160.31 81.9282 158.202 81.3927 158.063C80.8572 157.924 82.6564 151.008 82.1209 150.869C81.5854 150.731 79.6162 158.383 79.0722 158.242C78.5282 158.1 76.8566 164.571 76.3211 164.433C75.7856 164.294 79.1544 151.294 78.6302 151.156C78.1061 151.017 78.5509 149.266 78.0154 149.127C77.4799 148.988 74.1507 161.798 73.6152 161.659" stroke="black" stroke-width="8.32" stroke-linecap="round" stroke-linejoin="round"/>
<path d="M105.658 143.673C105.114 143.673 105.19 137.099 104.643 137.091C104.097 137.082 104.162 131.659 103.618 131.654C103.074 131.648 102.946 142.171 102.402 142.165C101.858 142.16 101.98 131.642 101.433 131.637C100.886 131.631 100.813 138.153 100.266 138.153C99.719 138.153 99.6425 144.84 99.0957 144.834C98.5489 144.829 98.699 132.113 98.155 132.107C97.611 132.101 97.56 136.334 97.0217 136.329C96.4834 136.323 96.5202 132.574 95.9762 132.569C95.4322 132.563 95.3245 141.562 94.7777 141.556C94.2309 141.55 94.2705 138.414 93.7237 138.408C93.1769 138.403 93.157 140.882 92.6045 140.876C92.052 140.87 92.0379 143.528 91.4712 143.522C90.9045 143.517 90.9895 138.187 90.4427 138.182C89.8959 138.176 89.978 131.223 89.434 131.217C88.89 131.212 88.8192 136.992 88.2724 136.986C87.7255 136.98 87.7879 131.668 87.2439 131.662C86.6999 131.656 86.6432 136.195 86.1105 136.195C85.5779 136.195 85.5439 137.938 84.997 137.932C84.4502 137.927 84.4474 138.187 83.9005 138.182C83.3537 138.176 83.2744 144.775 82.7275 144.769" stroke="black" stroke-width="8.32" stroke-linecap="round" stroke-linejoin="round"/>
<path d="M108.686 129.665C108.145 129.665 108.199 133.915 107.655 133.932C107.111 133.949 107.114 133.855 106.572 133.861C106.031 133.867 106.006 131.124 105.456 131.132C104.906 131.141 104.889 129.985 104.36 129.999C103.83 130.013 103.867 134.073 103.325 134.079C102.784 134.085 102.773 133.175 102.232 133.184C101.691 133.192 101.665 131.651 101.13 131.657C100.594 131.662 100.526 126.789 99.9963 126.795C99.4665 126.8 99.475 128.373 98.931 128.381C98.387 128.39 98.3643 126.327 97.8231 126.333C97.282 126.338 97.3046 128.271 96.7635 128.276C96.2223 128.282 96.2903 133.988 95.7491 133.997C95.208 134.005 95.2051 133.909 94.6611 133.915" stroke="black" stroke-width="8.32" stroke-linecap="round" stroke-linejoin="round"/>
<path d="M114.608 122.672L100.974 119.125" stroke="black" stroke-width="8.32" stroke-linecap="round" stroke-linejoin="round"/>
<path d="M120.827 112.121C120.314 111.945 119.555 114.198 119.042 114.025C118.529 113.852 117.909 115.725 117.385 115.549C116.861 115.373 115.773 118.629 115.26 118.456C114.747 118.283 116.702 112.492 116.189 112.319C115.676 112.146 115.671 112.16 115.158 111.988C114.645 111.815 113.344 115.671 112.832 115.487C112.319 115.303 111.829 116.77 111.313 116.595C110.797 116.419 112.489 111.421 111.976 111.248C111.463 111.075 109.653 116.436 109.143 116.263C108.633 116.09 109.723 112.863 109.208 112.679C108.692 112.495 109.128 111.22 108.616 111.044C108.103 110.868 108.477 109.763 107.961 109.588C107.445 109.412 105.93 113.909 105.411 113.736" stroke="black" stroke-width="8.32" stroke-linecap="round" stroke-linejoin="round"/>
<path d="M127.998 109.956C127.469 109.837 127.814 108.304 127.287 108.185C126.76 108.066 126.352 109.863 125.825 109.744C125.298 109.625 126.151 105.845 125.621 105.726C125.091 105.607 124.562 107.97 124.032 107.851C123.502 107.732 123.309 108.599 122.779 108.48C122.25 108.361 121.825 110.254 121.295 110.135C120.765 110.016 121.861 105.105 121.349 104.986C120.836 104.867 120.946 104.301 120.419 104.182C119.892 104.063 118.436 110.483 117.912 110.364C117.388 110.245 118.538 105.128 118.011 105.009C117.484 104.89 116.878 107.528 116.356 107.409C115.835 107.29 116.923 102.428 116.396 102.309C115.869 102.19 114.265 109.279 113.735 109.16" stroke="black" stroke-width="8.32" stroke-linecap="round" stroke-linejoin="round"/>
<path d="M135.169 104.859C134.685 104.621 134.866 104.25 134.381 104.009C133.897 103.768 135.138 101.244 134.651 101.006C134.163 100.768 134.798 99.4784 134.313 99.2376C133.829 98.9968 132.489 101.72 132.004 101.482C131.52 101.244 131.755 100.762 131.268 100.521C130.78 100.28 130.471 100.915 129.984 100.677C129.497 100.439 128.284 102.91 127.797 102.66C127.309 102.411 127.91 101.201 127.426 100.96C126.941 100.719 129.194 96.1436 128.706 95.8971C128.219 95.6506 127.27 97.5971 126.782 97.3563C126.295 97.1154 127.87 93.9138 127.383 93.6729C126.896 93.4321 126.023 95.2058 125.539 94.9678C125.054 94.7298 123.11 98.6709 122.623 98.4301" stroke="black" stroke-width="8.32" stroke-linecap="round" stroke-linejoin="round"/>
<path d="M146.641 98.739C146.335 98.2715 144.273 99.6145 143.967 99.1441C143.661 98.6738 141.7 99.946 141.402 99.4756C141.105 99.0053 143.527 97.4215 143.221 96.9511C142.915 96.4808 142.49 96.7585 142.184 96.2881C141.878 95.8178 143.805 94.5626 143.499 94.0923C143.193 93.622 139.334 96.1351 139.028 95.6648C138.722 95.1945 140.728 93.894 140.411 93.4236C140.093 92.9533 142.252 91.5536 141.946 91.0861C141.64 90.6186 139.77 91.8341 139.464 91.3695C139.158 90.9048 138.569 91.2816 138.263 90.8028C137.957 90.324 140.49 88.6806 140.184 88.2103C139.878 87.74 136.393 90.0095 136.087 89.5363C135.781 89.0631 137.376 88.0233 137.07 87.553" stroke="black" stroke-width="8.32" stroke-linecap="round" stroke-linejoin="round"/>
<path d="M155.498 97.8577C155.334 97.3363 150.342 98.8862 150.18 98.3648C150.019 97.8435 153.013 96.9113 152.858 96.3815C152.702 95.8517 155.756 94.911 155.595 94.3982C155.433 93.8853 152.923 94.656 152.761 94.1347C152.6 93.6133 150.982 94.1148 150.82 93.5935C150.659 93.0722 146.891 94.2423 146.729 93.7238C146.568 93.2053 152.807 91.2645 152.645 90.7432C152.484 90.2218 153.353 89.9527 153.189 89.4313C153.025 88.91 154.291 88.519 154.13 87.9977C153.968 87.4763 143.598 90.695 143.437 90.1737C143.275 89.6523 153.637 86.4393 153.467 85.9237C153.297 85.408 151.483 85.9633 151.325 85.442C151.166 84.9207 151.702 84.7535 151.54 84.2322C151.379 83.7108 151.676 83.6173 151.515 83.0988C151.353 82.5803 152.716 82.1553 152.554 81.634C152.393 81.1127 145.021 83.3992 144.859 82.8778C144.698 82.3565 145.142 82.2205 144.975 81.6992C144.808 81.1778 142.425 81.9202 142.252 81.3988C142.08 80.8775 151.016 78.1008 150.843 77.5767" stroke="black" stroke-width="8.32" stroke-linecap="round" stroke-linejoin="round"/>
<path d="M156.918 96.699C156.85 96.1635 153.713 96.563 153.645 96.0247C153.577 95.4863 153.586 95.4863 153.518 94.948C153.45 94.4097 153.495 94.404 153.424 93.8657C153.354 93.3273 156.048 92.9845 155.974 92.449C155.901 91.9135 158.034 91.6415 157.958 91.1032C157.881 90.5648 154.314 91.021 154.243 90.4855C154.172 89.95 161.922 88.9555 161.854 88.42C161.786 87.8845 162.752 87.757 162.684 87.2187C162.616 86.6803 161.335 86.8447 161.267 86.3063C161.199 85.768 155.107 86.5472 155.034 86.023C154.96 85.4988 151.373 85.9437 151.302 85.4053C151.231 84.867 158.352 83.9575 158.284 83.422C158.216 82.8865 157.479 82.9772 157.411 82.4388C157.343 81.9005 157.694 81.8552 157.623 81.3055C157.553 80.7558 162.123 80.1835 162.066 79.6423C162.009 79.1012 157.606 79.665 157.533 79.1267C157.459 78.5883 153.235 79.1267 153.167 78.5883C153.099 78.05 158.833 77.319 158.751 76.7778" stroke="black" stroke-width="8.32" stroke-linecap="round" stroke-linejoin="round"/>
<path d="M166.56 96.478C166.639 95.9368 170.144 96.461 170.226 95.9113C170.308 95.3617 171.558 95.5572 171.643 95.0188C171.728 94.4805 166.276 93.6702 166.356 93.1318C166.435 92.5935 168.931 92.9647 169.01 92.4235C169.09 91.8823 169.52 91.9503 169.6 91.412C169.679 90.8737 168.067 90.6328 168.146 90.0917C168.226 89.5505 168.954 89.661 169.036 89.1227C169.118 88.5843 168.251 88.4568 168.333 87.9157C168.415 87.3745 169.435 87.5303 169.515 86.9892C169.594 86.448 167.058 86.074 167.14 85.5328C167.223 84.9917 165.262 84.7027 165.341 84.1643C165.421 83.626 167.325 83.9065 167.39 83.3653C167.455 82.8242 170.152 83.2265 170.223 82.6882C170.294 82.1498 166.302 81.5548 166.381 81.0108C166.46 80.4668 173.804 81.5775 173.884 81.025C173.963 80.4725 174.283 80.532 174.365 79.9937" stroke="black" stroke-width="8.32" stroke-linecap="round" stroke-linejoin="round"/>
<path d="M162.248 99.4273C162.276 98.8833 160.924 98.8153 160.953 98.2713C160.981 97.7273 155.796 97.461 155.824 96.917C155.853 96.373 154.974 96.3276 155 95.7836C155.025 95.2396 167.435 95.8771 167.467 95.3331C167.498 94.7891 161.437 94.4831 161.466 93.9335C161.494 93.3838 152.498 92.9276 152.526 92.3808C152.555 91.834 158.083 92.123 158.111 91.579C158.139 91.035 162.59 91.2645 162.619 90.729C162.647 90.1935 157.235 89.9045 157.267 89.3605C157.298 88.8165 159.749 88.944 159.777 88.4C159.805 87.856 159.315 87.8333 159.343 87.2865C159.372 86.7396 167.316 87.1533 167.345 86.6065C167.373 86.0596 168.725 86.1333 168.761 85.5893C168.798 85.0453 159.573 84.5721 159.601 84.0281C159.63 83.4841 160.735 83.5408 160.777 82.9968C160.82 82.4528 154.731 82.1468 154.759 81.5943C154.787 81.0418 162.709 81.4583 162.738 80.9143C162.766 80.3703 156.04 80.0246 156.068 79.4778C156.096 78.931 162.469 79.2625 162.497 78.7185C162.525 78.1745 161.219 78.1065 161.247 77.5625C161.276 77.0185 165.325 77.2253 165.353 76.6813C165.381 76.1373 168.237 76.2846 168.266 75.7406C168.294 75.1966 165.191 75.0351 165.22 74.4883C165.248 73.9415 169.172 74.1455 169.186 73.5986" stroke="black" stroke-width="8.32" stroke-linecap="round" stroke-linejoin="round"/>
<path d="M174.78 96.0332C174.989 95.526 173.706 94.9905 173.93 94.4833C174.154 93.9762 174.947 94.3077 175.159 93.8005C175.372 93.2933 172.765 92.2053 172.975 91.6982C173.185 91.191 177.97 93.18 178.183 92.67C178.395 92.16 180.733 93.1318 180.937 92.6247C181.141 92.1175 174.1 89.1878 174.312 88.6835C174.525 88.1792 178.038 89.6355 178.251 89.1283C178.463 88.6212 180.701 89.5505 180.914 89.0405C181.126 88.5305 175.669 86.261 175.882 85.7538C176.094 85.2467 184.796 88.8705 185.008 88.3577C185.221 87.8448 182.824 86.8503 183.025 86.3403C183.226 85.8303 182.311 85.4478 182.523 84.9237C182.736 84.3995 180.412 83.4475 180.625 82.9403C180.837 82.4332 177.814 81.1752 178.027 80.6737C178.239 80.1722 182.843 82.0762 183.045 81.5662C183.246 81.0562 179.361 79.444 179.588 78.934C179.815 78.424 186.28 81.1213 186.493 80.6113C186.705 80.1013 182.509 78.3447 182.719 77.846C182.928 77.3473 178.449 75.4717 178.661 74.9617" stroke="black" stroke-width="8.32" stroke-linecap="round" stroke-linejoin="round"/>
<path d="M180.375 97.0418C180.587 96.5148 183.925 97.8606 184.135 97.3251C184.345 96.7896 184.398 96.8208 184.611 96.2966C184.823 95.7725 183.599 95.2766 183.812 94.7525C184.024 94.2283 184.302 94.3388 184.514 93.8146C184.727 93.2905 181.965 92.1741 182.169 91.6471C182.373 91.1201 183.985 91.769 184.197 91.242C184.41 90.715 182.514 89.9528 182.727 89.4258C182.939 88.8988 187.331 90.6696 187.543 90.1455" stroke="black" stroke-width="8.32" stroke-linecap="round" stroke-linejoin="round"/>
<path d="M190.326 100.175C190.57 99.6908 187.263 98.0277 187.493 97.5432C187.722 97.0587 194.171 100.3 194.415 99.8098C194.658 99.3197 191.258 97.6168 191.502 97.1323C191.746 96.6478 194.052 97.8123 194.301 97.3307C194.551 96.849 193.944 96.5458 194.185 96.0613C194.426 95.5768 189.179 92.9447 189.422 92.4517C189.666 91.9587 196.925 95.625 197.169 95.1405C197.412 94.656 193.706 92.7945 193.95 92.3072C194.194 91.8198 191.434 90.4372 191.683 89.9527C191.933 89.4682 199.673 93.3697 199.917 92.8852C200.161 92.4007 191.771 88.179 192.015 87.6945C192.259 87.21 197.778 89.9923 198.022 89.5078C198.265 89.0233 195.605 87.686 195.848 87.2015C196.092 86.717 193.168 85.2465 193.412 84.762C193.655 84.2775 192.984 83.9432 193.228 83.4587C193.471 82.9742 193.772 83.1272 194.015 82.6427C194.259 82.1582 203.824 86.9748 204.068 86.4903C204.312 86.0058 198.931 83.3 199.183 82.8183C199.435 82.3367 200.515 82.8807 200.759 82.3962C201.002 81.9117 202.223 82.5265 202.459 82.042" stroke="black" stroke-width="8.32" stroke-linecap="round" stroke-linejoin="round"/>
<path d="M179.177 99.9997C179.401 99.4897 187.192 102.878 187.413 102.371C187.634 101.864 182.503 99.6286 182.724 99.1186C182.945 98.6086 178.474 96.6564 178.681 96.1464C178.888 95.6364 176.856 94.7496 177.077 94.2396C177.298 93.7296 191.085 99.7334 191.306 99.2149C191.527 98.6964 186.527 96.5289 186.748 96.0189C186.969 95.5089 184.039 94.2339 184.26 93.7239C184.481 93.2139 185.96 93.8599 186.184 93.3499C186.408 92.8399 183.883 91.7434 184.107 91.2334C184.331 90.7234 193.599 94.7552 193.822 94.2452C194.046 93.7352 179.684 87.4906 179.916 86.9834C180.149 86.4762 185.124 88.6437 185.345 88.1337C185.566 87.6237 194.058 91.3156 194.281 90.8084C194.505 90.3012 196.18 91.0266 196.404 90.5251C196.627 90.0236 183.161 84.1501 183.382 83.6429C183.603 83.1357 181.857 82.3736 182.078 81.8636C182.299 81.3536 189.629 84.5411 189.85 84.0339C190.071 83.5267 182.92 80.4101 183.141 79.9001C183.362 79.3901 193.539 83.8157 193.76 83.3001C193.981 82.7844 193.369 82.5237 193.593 82.0137C193.817 81.5037 189.686 79.7102 189.91 79.2002C190.133 78.6902 185.991 76.8882 186.226 76.3669C186.461 75.8456 197.2 80.5319 197.421 80.0219C197.642 79.5119 191.261 76.7352 191.471 76.2252C191.68 75.7152 187.221 73.7772 187.453 73.2644C187.685 72.7516 200.699 78.4211 200.92 77.9082C201.141 77.3954 196.622 75.4319 196.846 74.9219C197.069 74.4119 193.941 73.0519 194.165 72.5391" stroke="black" stroke-width="8.32" stroke-linecap="round" stroke-linejoin="round"/>
<path d="M197.08 104.267C197.454 103.895 197.185 103.623 197.562 103.252C197.939 102.881 199.007 103.955 199.381 103.581C199.755 103.207 199.868 103.32 200.231 102.949C200.593 102.578 200.88 102.853 201.254 102.479C201.628 102.105 199.627 100.093 200.004 99.722C200.381 99.3508 201.517 100.493 201.891 100.119C202.265 99.7446 202.288 99.7645 202.665 99.3933C203.041 99.0221 201.186 97.155 201.562 96.781C201.939 96.407 202.786 97.2626 203.163 96.8886" stroke="black" stroke-width="8.32" stroke-linecap="round" stroke-linejoin="round"/>
<path d="M192.099 106.125C192.383 105.664 198.435 109.559 198.729 109.1C199.024 108.641 190.532 103.15 190.83 102.697C191.127 102.244 191.926 102.754 192.224 102.292C192.521 101.83 194.542 103.142 194.839 102.677C195.137 102.213 196.018 102.785 196.312 102.326C196.607 101.867 199.775 103.907 200.069 103.459C200.364 103.012 194.969 99.5068 195.253 99.0478C195.536 98.5888 193.162 97.0475 193.459 96.5885C193.757 96.1295 202.965 102.074 203.26 101.615C203.554 101.156 193.609 94.7326 193.91 94.2708C194.21 93.809 202.299 99.0223 202.583 98.5633C202.866 98.1043 198.707 95.407 199.004 94.948C199.302 94.489 202.56 96.5913 202.857 96.1323C203.155 95.6733 202.271 95.101 202.574 94.642C202.877 94.183 199.531 92.024 199.829 91.565C200.126 91.106 199.891 90.953 200.188 90.4911C200.486 90.0293 199.452 89.3578 199.749 88.9045C200.047 88.4511 207.175 93.044 207.473 92.5878C207.77 92.1316 206.255 91.1485 206.552 90.6895C206.85 90.2305 199.44 85.445 199.752 84.986C200.064 84.527 209.723 90.7688 210.02 90.3098C210.318 89.8508 200.755 83.6741 201.053 83.2265C201.35 82.7788 204.824 85.0086 205.121 84.5468C205.419 84.085 201.988 81.8693 202.288 81.4075" stroke="black" stroke-width="8.32" stroke-linecap="round" stroke-linejoin="round"/>
<path d="M219.69 205.207C220.209 205.425 217.8 211.098 218.316 211.316C218.832 211.534 221.331 205.649 221.849 205.876C222.368 206.102 219.866 212.01 220.37 212.231C220.875 212.452 221.923 210.015 222.439 210.248C222.954 210.48 223.232 209.817 223.75 210.038C224.269 210.259 222.569 214.26 223.085 214.481C223.6 214.702 225.408 210.454 225.918 210.675C226.428 210.896 226.64 210.418 227.156 210.639C227.672 210.86 226.255 214.2 226.774 214.421C227.292 214.642 228.287 212.29 228.805 212.511C229.324 212.732 228.066 215.693 228.584 215.911C229.103 216.13 231.757 209.879 232.267 210.1C232.777 210.321 232.089 211.959 232.607 212.18" stroke="black" stroke-width="8.32" stroke-linecap="round" stroke-linejoin="round"/>
<path d="M216.466 216.657C216.845 217.039 218.047 215.843 218.429 216.229C218.812 216.614 217.905 217.509 218.288 217.892C218.67 218.274 218.033 218.909 218.415 219.292C218.798 219.674 219.764 218.711 220.146 219.093C220.529 219.476 219.495 220.51 219.863 220.89C220.231 221.269 223.83 217.708 224.206 218.09C224.583 218.473 222.387 220.666 222.767 221.048C223.147 221.431 225.935 218.66 226.317 219.042C226.7 219.425 224.26 221.85 224.643 222.235C225.025 222.621 226.156 221.49 226.538 221.876C226.921 222.261 225.085 224.083 225.467 224.465C225.85 224.848 225.929 224.771 226.317 225.157C226.705 225.542 226.564 225.672 226.946 226.058" stroke="black" stroke-width="8.32" stroke-linecap="round" stroke-linejoin="round"/>
<path d="M215.361 220.756C215.82 220.972 216.013 220.329 216.563 220.584C216.846 220.708 217.033 221.108 217.37 221.264C217.707 221.419 217.54 222.524 217.855 222.68C218.169 222.836 218.727 222.434 219.028 222.564C219.328 222.694 219.694 222.847 219.971 222.975C220.467 223.182 220.98 224.519 221.079 224.519" stroke="black" stroke-width="8.32" stroke-linecap="round" stroke-linejoin="round"/>
<path d="M210.536 228.874C210.627 228.936 212.536 226.698 213.086 226.891C213.369 226.995 214.693 224.341 215.069 224.465C215.378 224.576 214.809 227.245 215.169 227.367C215.528 227.488 214.245 232.2 214.602 232.319C214.959 232.438 217.492 226.018 217.838 226.134C218.183 226.25 218.384 226.701 218.724 226.814C219.064 226.927 219.169 227.704 219.506 227.817C219.844 227.93 220.218 227.933 220.552 228.044C220.886 228.154 221.555 227.299 221.886 227.406C222.218 227.514 220.753 233.093 221.085 233.2C221.416 233.308 221.796 233.37 222.119 233.484C222.442 233.597 222.731 233.994 223.042 234.096C223.422 234.223 224.156 233.147 224.459 233.246C225.091 233.453 226.27 229.426 226.774 229.594" stroke="black" stroke-width="8.32" stroke-linecap="round" stroke-linejoin="round"/>
<path d="M231.372 180.339C231.939 180.339 231.797 175.627 232.358 175.613C232.919 175.599 232.942 176.386 233.491 176.369C234.041 176.352 234.084 177.457 234.645 177.443C235.206 177.429 235.316 181.277 235.877 181.26C236.438 181.243 236.248 174.621 236.809 174.604C237.37 174.587 237.438 176.95 238.002 176.936C238.566 176.922 238.464 173.445 239.025 173.428C239.586 173.411 239.699 177.231 240.266 177.216C240.833 177.202 240.85 177.899 241.399 177.885C241.949 177.871 241.983 178.721 242.547 178.704C243.111 178.687 243.15 180.121 243.711 180.121C244.272 180.121 244.295 180.871 244.845 180.854" stroke="black" stroke-width="8.32" stroke-linecap="round" stroke-linejoin="round"/>
<path d="M231.721 169.045C232.265 169 232.644 173.477 233.188 173.431C233.732 173.386 233.322 168.566 233.866 168.521C234.41 168.476 234.563 170.289 235.107 170.244C235.651 170.198 235.985 174.168 236.523 174.12C237.062 174.072 237.147 175.012 237.691 174.97C238.235 174.927 238.121 173.59 238.662 173.553C239.204 173.516 239.178 173.165 239.722 173.12C240.266 173.074 240.065 170.706 240.609 170.66C241.153 170.615 241.317 172.567 241.861 172.519C242.405 172.471 242.326 171.539 242.87 171.493C243.414 171.448 243.391 171.179 243.935 171.131" stroke="black" stroke-width="8.32" stroke-linecap="round" stroke-linejoin="round"/>
<path d="M233.327 168.331C233.86 168.283 233.61 165.396 234.14 165.351C234.67 165.305 234.613 164.645 235.149 164.597C235.684 164.549 235.313 160.37 235.849 160.321C236.384 160.273 236.566 162.356 237.098 162.305C237.631 162.254 238.209 168.785 238.744 168.736C239.28 168.688 239.116 166.83 239.648 166.781C240.181 166.733 239.648 160.667 240.181 160.622C240.714 160.576 240.722 160.639 241.258 160.591C241.793 160.542 242.445 167.935 242.977 167.889C243.51 167.844 243.278 165.189 243.813 165.141C244.349 165.093 244.448 166.246 244.983 166.198C245.519 166.15 245.026 160.562 245.55 160.514C246.074 160.466 246.321 163.138 246.856 163.092" stroke="black" stroke-width="8.32" stroke-linecap="round" stroke-linejoin="round"/>
<path d="M231.78 156.377C232.316 156.377 232.313 158.029 232.848 158.029C233.384 158.029 233.392 155.669 233.931 155.672C234.469 155.675 234.466 157.089 235.002 157.089C235.537 157.089 235.543 156.553 236.081 156.556C236.62 156.559 236.628 152.204 237.166 152.204C237.705 152.204 237.691 157.533 238.229 157.533C238.767 157.533 238.773 154.7 239.311 154.7C239.85 154.7 239.847 155.374 240.388 155.377C240.929 155.38 240.929 153.422 241.47 153.425" stroke="black" stroke-width="8.32" stroke-linecap="round" stroke-linejoin="round"/>
<path d="M233.88 157.984C234.447 157.984 234.447 157.511 234.991 157.511C235.535 157.511 235.557 156.287 236.107 156.289C236.657 156.292 236.654 159.593 237.209 159.596C237.764 159.599 237.776 155.043 238.342 155.046C238.909 155.048 238.909 156.828 239.45 156.828C239.991 156.828 240 159.318 240.555 159.318C241.111 159.318 241.102 163.384 241.657 163.387C242.213 163.39 242.224 159.704 242.791 159.704C243.357 159.704 243.357 156.304 243.924 156.304C244.491 156.304 244.491 156.884 245.035 156.887C245.579 156.89 245.576 163.036 246.131 163.036C246.687 163.036 246.698 160.729 247.25 160.729C247.803 160.729 247.817 156.683 248.384 156.683C248.95 156.683 248.95 156.825 249.5 156.828" stroke="black" stroke-width="8.32" stroke-linecap="round" stroke-linejoin="round"/>
<path d="M231.026 151.549C231.545 151.411 231.086 149.694 231.593 149.566C232.1 149.439 231.777 148.181 232.296 148.042C232.814 147.903 232.344 146.146 232.862 146.007C233.381 145.869 233.996 148.178 234.517 148.039C235.038 147.9 234.39 145.489 234.908 145.356C235.427 145.223 237.212 151.872 237.741 151.748C238.271 151.623 237.076 147.183 237.594 147.044C238.113 146.906 238.62 148.804 239.138 148.665C239.657 148.526 239.855 149.263 240.374 149.124C240.892 148.985 239.24 142.78 239.747 142.641C240.255 142.503 240.07 141.766 240.597 141.627C241.124 141.488 242.887 148.107 243.405 147.968C243.924 147.829 242.612 142.928 243.122 142.789C243.632 142.65 245.162 148.331 245.672 148.192" stroke="black" stroke-width="8.32" stroke-linecap="round" stroke-linejoin="round"/>
<path d="M232.429 159.097C232.959 158.95 231.967 155.338 232.5 155.193C233.032 155.049 233.707 157.514 234.239 157.369C234.772 157.225 234.265 155.386 234.806 155.236C235.347 155.085 236.616 159.769 237.149 159.61C237.682 159.452 237.277 158.001 237.809 157.856C238.342 157.712 237.883 156.037 238.413 155.893C238.943 155.748 238.073 152.564 238.603 152.419C239.132 152.275 240.515 157.301 241.045 157.157C241.575 157.012 241.195 155.618 241.728 155.474C242.26 155.329 242.813 157.344 243.346 157.196C243.878 157.049 242.275 151.209 242.804 151.065C243.334 150.92 243.261 150.643 243.793 150.498C244.326 150.354 244.791 152.045 245.32 151.915C245.85 151.785 244.544 146.996 245.077 146.849C245.609 146.702 246.777 151.017 247.324 150.869C247.87 150.722 246.799 146.877 247.324 146.73C247.848 146.583 248.457 148.804 248.998 148.659" stroke="black" stroke-width="8.32" stroke-linecap="round" stroke-linejoin="round"/>
<path d="M227.989 140.624C228.499 140.457 229.545 143.607 230.055 143.437C230.565 143.267 230.262 142.358 230.769 142.188C231.276 142.018 231.355 142.253 231.862 142.083C232.37 141.913 231.973 140.709 232.483 140.542C232.993 140.375 234.217 144.064 234.727 143.894C235.237 143.724 233.441 138.32 233.948 138.15C234.455 137.98 234.106 136.924 234.616 136.756C235.126 136.589 236.387 140.383 236.883 140.213C237.379 140.043 238.252 142.627 238.762 142.46C239.272 142.293 237.41 136.697 237.912 136.527C238.413 136.357 239.838 140.621 240.348 140.451C240.858 140.281 239.147 135.136 239.657 134.966" stroke="black" stroke-width="8.32" stroke-linecap="round" stroke-linejoin="round"/>
<path d="M225.578 134.85C226.074 134.603 224.949 132.356 225.445 132.11C225.941 131.863 226.504 132.994 227 132.747C227.496 132.501 227.434 132.379 227.93 132.132C228.425 131.886 227.363 129.744 227.847 129.497C228.332 129.251 230.114 132.773 230.601 132.526C231.089 132.28 232.925 135.926 233.435 135.683C233.945 135.439 231.766 131.135 232.259 130.9C232.752 130.665 233.049 131.246 233.542 130.996C234.035 130.747 235.112 132.895 235.608 132.645C236.104 132.396 233.786 127.772 234.282 127.523C234.778 127.273 236.506 130.733 237.002 130.483C237.498 130.234 237.625 130.483 238.121 130.243C238.617 130.002 237.192 127.146 237.688 126.896" stroke="black" stroke-width="8.32" stroke-linecap="round" stroke-linejoin="round"/>
<path d="M222.569 128.942C222.963 128.523 222.705 128.279 223.099 127.86C223.493 127.441 223.963 127.883 224.36 127.463C224.757 127.044 224.184 126.508 224.581 126.089C224.978 125.67 224.643 125.361 225.037 124.956C225.431 124.551 226.618 125.65 227.021 125.239C227.423 124.828 225.961 123.454 226.355 123.035C226.749 122.615 229.01 124.735 229.406 124.318C229.803 123.902 227.57 121.799 227.964 121.38C228.358 120.961 229.46 121.992 229.854 121.57" stroke="black" stroke-width="8.32" stroke-linecap="round" stroke-linejoin="round"/>
<path d="M217.917 123.533C218.419 123.312 216.6 119.147 217.101 118.929C217.603 118.711 219.368 122.746 219.872 122.525C220.376 122.304 221.113 123.995 221.615 123.777C222.116 123.559 218.113 114.39 218.617 114.183C219.121 113.977 222.955 122.743 223.456 122.525C223.958 122.307 223.36 120.935 223.861 120.714C224.363 120.493 224.298 120.34 224.799 120.122C225.301 119.904 222.249 112.886 222.739 112.665C223.23 112.444 227.859 123.015 228.361 122.797C228.862 122.579 224.743 113.138 225.244 112.917C225.746 112.696 227.689 117.144 228.191 116.926C228.692 116.708 226.207 111.047 226.726 110.829C227.244 110.611 226.944 109.953 227.446 109.735C227.947 109.517 228.035 109.712 228.539 109.491C229.044 109.27 229.262 109.775 229.763 109.557C230.265 109.338 230.559 110.004 231.061 109.783C231.562 109.562 234.809 116.991 235.311 116.773C235.812 116.555 233.976 112.345 234.478 112.126C234.979 111.908 235.895 114.005 236.405 113.784C236.915 113.563 235.489 110.313 235.994 110.101" stroke="black" stroke-width="8.32" stroke-linecap="round" stroke-linejoin="round"/>
<path d="M219.348 128.112C219.815 127.806 223.637 133.654 224.105 133.348C224.572 133.042 219.127 124.715 219.583 124.409C220.039 124.103 223.481 129.353 223.949 129.047C224.416 128.741 221.994 125.038 222.461 124.732C222.929 124.426 223.43 125.194 223.898 124.888C224.365 124.582 225.689 126.605 226.165 126.304C226.641 126.004 222.507 119.686 222.983 119.38C223.459 119.074 225.946 122.896 226.414 122.59C226.881 122.284 230.664 128.055 231.12 127.749C231.576 127.443 228.417 122.596 228.885 122.29C229.352 121.984 229.715 122.539 230.182 122.236C230.65 121.933 230.995 122.457 231.46 122.154C231.925 121.85 234.347 125.554 234.815 125.242C235.282 124.93 235.665 125.525 236.13 125.214C236.594 124.902 235.28 122.879 235.741 122.576C236.203 122.273 234.325 119.366 234.778 119.06C235.231 118.754 238.937 124.415 239.416 124.1C239.895 123.786 238.408 121.55 238.875 121.236C239.343 120.921 236.846 117.107 237.314 116.801C237.781 116.495 239.014 118.382 239.481 118.076C239.949 117.77 238.13 114.988 238.597 114.676C239.065 114.365 242.731 119.978 243.201 119.669C243.672 119.36 241.694 116.342 242.164 116.036" stroke="black" stroke-width="8.32" stroke-linecap="round" stroke-linejoin="round"/>
<path d="M215.333 111.421C215.733 111.058 215.418 110.713 215.818 110.35C216.217 109.987 218.277 112.257 218.676 111.897C219.076 111.537 217.501 109.8 217.9 109.438C218.3 109.075 221.238 112.311 221.637 111.948C222.037 111.585 221.66 111.172 222.059 110.815C222.459 110.458 222.405 110.392 222.805 110.033C223.204 109.673 222.493 108.885 222.892 108.525C223.292 108.165 224.088 109.038 224.488 108.675C224.887 108.313 222.901 106.125 223.3 105.76C223.7 105.394 225.391 107.262 225.791 106.893C226.19 106.525 225.924 106.236 226.324 105.873" stroke="black" stroke-width="8.32" stroke-linecap="round" stroke-linejoin="round"/>
<path d="M213.803 115.716C214.112 115.254 211.5 113.501 211.82 113.039C212.14 112.577 208.916 110.424 209.228 109.962C209.539 109.5 208.661 108.916 208.975 108.454C209.29 107.993 209.145 107.888 209.457 107.437C209.769 106.987 213.231 109.299 213.54 108.837C213.849 108.375 212.574 107.517 212.883 107.055C213.191 106.593 215.631 108.231 215.943 107.769C216.254 107.307 217.58 108.197 217.889 107.732C218.198 107.267 212.356 103.354 212.667 102.89C212.979 102.425 219.258 106.638 219.566 106.176C219.875 105.715 213.883 101.717 214.2 101.241C214.517 100.765 219.266 103.966 219.583 103.507C219.901 103.048 219.328 102.657 219.64 102.204C219.952 101.751 217.215 99.9062 217.526 99.4444C217.838 98.9825 217.526 98.7785 217.847 98.311" stroke="black" stroke-width="8.32" stroke-linecap="round" stroke-linejoin="round"/>
<path d="M201.138 105.023C201.481 104.604 201.163 104.343 201.506 103.924C201.849 103.505 204.365 105.559 204.708 105.139C205.051 104.72 206.456 105.868 206.799 105.448C207.142 105.029 206.799 104.743 207.136 104.315C207.473 103.887 209.221 105.318 209.564 104.899C209.907 104.479 204.883 100.365 205.226 99.9572C205.569 99.5492 208.895 102.255 209.238 101.833C209.581 101.411 209.428 101.289 209.774 100.87C210.119 100.45 212.531 102.419 212.873 102.003C213.216 101.586 210.323 99.2092 210.655 98.7898C210.986 98.3705 213.001 100.005 213.344 99.586C213.687 99.1667 210.952 96.934 211.295 96.5118C211.638 96.0897 212.08 96.4523 212.429 96.033C212.777 95.6137 215.319 97.6905 215.661 97.2712C216.004 96.8518 211.026 92.7917 211.366 92.3667C211.706 91.9417 212.548 92.6273 212.89 92.208" stroke="black" stroke-width="8.32" stroke-linecap="round" stroke-linejoin="round"/>
<path d="M131.749 111.492C131.647 111.461 133.449 105.037 132.911 104.782C132.628 104.649 133.959 101.006 133.58 100.816C133.274 100.668 131.953 102.606 131.596 102.434C131.239 102.261 130.245 103.59 129.896 103.422C129.548 103.255 126.247 109.304 125.904 109.14C125.561 108.976 128.032 103.074 127.692 102.907C127.352 102.74 126.882 102.907 126.545 102.742C126.207 102.578 124.471 105.326 124.136 105.165C123.802 105.003 124.819 102.077 124.488 101.912C124.156 101.748 124.771 99.6257 124.451 99.4642C124.131 99.3027 123.966 98.7701 123.638 98.6142C123.309 98.4584 123.499 97.1976 123.17 97.0474C122.841 96.8972 120.433 100.955 120.107 100.796C119.781 100.637 120.107 99.0959 119.787 98.9316C119.467 98.7672 116.917 103.088 116.597 102.932C116.277 102.776 119.762 94.7524 119.45 94.5994C119.093 94.4237 118.747 94.2906 118.444 94.1404C118.064 93.9562 116.081 97.1579 115.801 97.0191C115.172 96.7102 117.586 92.1372 117.09 91.8936" stroke="black" stroke-width="8.32" stroke-linecap="round" stroke-linejoin="round"/>
<path d="M123.578 110.713C123.099 110.449 125.371 106.298 124.893 106.038C124.414 105.777 124.652 105.341 124.173 105.077C123.694 104.814 120.189 111.217 119.71 110.956C119.232 110.696 118.506 112.019 118.027 111.758C117.549 111.497 117.347 111.86 116.869 111.599C116.39 111.339 116.772 110.642 116.302 110.378C115.832 110.115 115.421 110.849 114.942 110.585C114.463 110.322 113.687 111.741 113.208 111.48C112.729 111.22 117.432 102.623 116.954 102.36C116.475 102.096 113.112 108.233 112.636 107.967C112.16 107.701 115.086 102.349 114.619 102.088C114.151 101.827 113.432 103.119 112.953 102.859C112.474 102.598 112.029 103.405 111.55 103.142C111.072 102.878 107.139 110.069 106.66 109.806C106.181 109.542 111.681 99.4897 111.193 99.2291C110.706 98.9684 105.555 108.395 105.076 108.131C104.597 107.868 107.06 103.343 106.595 103.082C106.13 102.822 106.431 102.232 105.952 101.98C105.473 101.728 101.172 109.576 100.69 109.313C100.209 109.049 104.918 100.453 104.439 100.19C103.96 99.926 100.962 105.403 100.472 105.139C99.9818 104.876 103.847 97.835 103.368 97.5715C102.889 97.308 100.855 101.028 100.373 100.765C99.8912 100.501 96.3353 106.998 95.8395 106.74C95.3437 106.482 100.982 96.2059 100.5 95.9424" stroke="black" stroke-width="8.32" stroke-linecap="round" stroke-linejoin="round"/>
<path d="M144.057 100.105C143.697 99.6825 143.207 100.09 142.859 99.6683C142.51 99.2461 137.699 103.352 137.339 102.915C136.98 102.479 140.938 99.1243 140.578 98.7021C140.218 98.2799 135.926 101.938 135.566 101.516C135.206 101.093 138.181 98.5605 137.832 98.1383C137.484 97.7161 137.804 97.4356 137.444 97.005C137.084 96.5743 136.002 97.5065 135.642 97.0843C135.282 96.6621 132.364 99.1526 132.004 98.7305C131.644 98.3083 136.254 94.3926 135.886 93.9705C135.518 93.5483 134.5 94.421 134.141 93.9988C133.781 93.5766 130.899 96.0501 130.537 95.6138C130.174 95.1775 131.919 93.7098 131.559 93.2876C131.2 92.8655 127.856 95.7158 127.496 95.2936C127.137 94.8714 128.142 94.0158 127.78 93.5936C127.417 93.1714 127.052 93.486 126.692 93.0638C126.332 92.6416 130.928 88.7288 130.568 88.3066C130.208 87.8845 124.878 92.4235 124.519 91.99C124.159 91.5565 126.927 89.2105 126.567 88.7883C126.207 88.3661 125.434 89.032 125.068 88.6098C124.703 88.1876 127.638 85.6943 127.278 85.2721C126.918 84.85 124.388 87.0061 124.028 86.584C123.669 86.1618 121.158 88.2981 120.798 87.876C120.439 87.4538 128.145 80.9031 127.783 80.4668C127.42 80.0305 124.266 82.7335 123.904 82.3113" stroke="black" stroke-width="8.32" stroke-linecap="round" stroke-linejoin="round"/>
<path d="M111.633 120.828C111.066 120.734 109.896 127.551 109.346 127.455C108.797 127.359 109.989 120.493 109.437 120.4C108.884 120.306 106.249 135.519 105.683 135.434C105.116 135.349 107.581 121.241 107.029 121.145C106.476 121.049 106.281 122.196 105.728 122.1C105.176 122.004 103.076 134.099 102.526 134.017C101.977 133.935 102.983 128.124 102.43 128.027C101.878 127.931 101.846 128.115 101.297 128.027C100.747 127.939 102.178 119.683 101.625 119.587C101.073 119.49 99.6903 127.463 99.1378 127.367C98.5853 127.271 100.401 116.838 99.8489 116.742C99.2964 116.646 99.2483 116.935 98.6958 116.841C98.1433 116.748 96.1458 128.245 95.5961 128.149C95.0464 128.053 94.6384 130.387 94.0888 130.291C93.5391 130.195 94.0491 127.217 93.4994 127.123C92.9498 127.03 94.4203 118.55 93.8706 118.453C93.3209 118.357 93.6071 116.708 93.0546 116.612C92.5021 116.515 91.0713 124.735 90.5244 124.639C89.9776 124.542 88.9406 130.495 88.3881 130.399C87.8356 130.302 87.8214 130.43 87.2548 130.336C86.6881 130.243 88.8046 118.139 88.2549 118.043C87.7053 117.946 85.9118 128.243 85.3593 128.158C84.8068 128.073 87.3086 113.671 86.7561 113.574C86.2036 113.478 84.8578 121.224 84.3053 121.139C83.7528 121.054 85.2629 112.356 84.7133 112.257C84.1636 112.158 81.6844 126.469 81.1319 126.367C80.5794 126.265 82.4211 115.671 81.8714 115.575C81.3218 115.478 79.7124 124.729 79.1599 124.641C78.6074 124.554 80.3981 114.235 79.8456 114.138" stroke="black" stroke-width="8.32" stroke-linecap="round" stroke-linejoin="round"/>
<path d="M104.308 179.191C104.371 178.851 102.911 178.265 102.965 177.834C103.011 177.474 105.45 177.353 105.49 176.936C105.524 176.565 103.506 175.995 103.532 175.587C103.557 175.179 104.974 174.927 105.002 174.522C105.031 174.117 104.084 173.692 104.11 173.29C104.135 172.887 105.697 172.607 105.716 172.204C105.736 171.802 106.357 171.459 106.377 171.071C106.396 170.683 105.569 170.249 105.589 169.853C105.609 169.456 103.849 168.989 103.869 168.592C103.889 168.195 103.793 167.807 103.812 167.413C103.832 167.019 105.583 166.719 105.603 166.325C105.623 165.931 106.133 165.572 106.153 165.192C106.173 164.812 105.019 164.342 105.053 163.959C105.087 163.577 105.643 163.211 105.665 162.826C105.688 162.441 105.892 162.058 105.918 161.664C105.943 161.271 104.082 160.769 104.107 160.378C104.133 159.987 105.623 159.69 105.648 159.299C105.674 158.908 104.688 158.449 104.713 158.055C104.739 157.661 105.314 157.312 105.342 156.921C105.371 156.53 105.172 156.12 105.204 155.729C105.235 155.338 104.637 154.879 104.679 154.499C104.722 154.119 104.679 153.703 104.725 153.312C104.77 152.921 107.45 152.796 107.493 152.408C107.535 152.02 105.408 151.394 105.45 151.008C105.493 150.623 106.439 150.331 106.487 149.943C106.535 149.555 105.867 149.067 105.92 148.682C105.974 148.297 106.365 147.945 106.422 147.549C106.479 147.152 105.515 146.6 105.572 146.217C105.629 145.835 106.793 145.614 106.861 145.231C106.929 144.849 106.068 144.268 106.141 143.888C106.215 143.508 106.708 143.18 106.796 142.806C106.884 142.432 106.994 142.021 107.079 141.647C107.164 141.273 107.391 140.89 107.493 140.514C107.595 140.137 108.244 139.902 108.363 139.536C108.482 139.171 107.952 138.533 108.079 138.176C108.207 137.819 108.32 137.363 108.473 137.02C108.626 136.677 108.238 135.901 108.419 135.572C108.601 135.244 109.269 135.147 109.468 134.793C109.666 134.439 111.822 135.241 112.018 134.892C112.213 134.544 111.332 133.597 111.536 133.249C111.74 132.9 110.85 131.931 111.057 131.586C111.264 131.24 111.598 130.988 111.805 130.645C112.012 130.302 113.154 130.549 113.364 130.209C113.573 129.869 113.542 129.396 113.757 129.058C113.973 128.721 114.911 128.869 115.129 128.534C115.347 128.2 114.933 127.472 115.151 127.14C115.37 126.809 116.642 127.194 116.851 126.857C117.061 126.52 116.429 125.627 116.653 125.299C116.877 124.97 117.815 125.154 118.041 124.831C118.268 124.508 116.928 123.077 117.157 122.754C117.387 122.431 119.342 123.366 119.577 123.038C119.812 122.709 118.141 120.989 118.379 120.672C118.617 120.354 120.912 121.612 121.152 121.301C121.393 120.989 119.554 119.048 119.798 118.751C120.042 118.453 120.05 117.915 120.3 117.617C120.549 117.32 122.782 118.646 123.037 118.343C123.292 118.04 123.683 117.881 123.94 117.583C124.198 117.286 122.495 115.249 122.759 114.957C123.022 114.665 124.538 115.504 124.807 115.215C125.077 114.926 125.799 115.033 126.082 114.75C126.366 114.467 125.689 113.246 125.969 112.971C126.25 112.696 126.057 111.891 126.343 111.625C126.629 111.359 127.896 112.132 128.19 111.871C128.485 111.611 128.349 110.84 128.649 110.588C128.95 110.336 129.701 110.625 130.009 110.384C130.318 110.143 130.604 109.871 130.919 109.642C131.233 109.412 130.67 107.851 130.995 107.636C131.321 107.42 132.942 109.219 133.276 109.021C133.611 108.823 133.534 107.925 133.877 107.743C134.22 107.562 134.214 106.593 134.568 106.434C134.922 106.276 135.367 106.174 135.733 106.04C136.098 105.907 136.209 105.074 136.583 104.935C136.957 104.797 137.982 106.412 138.356 106.27C138.73 106.128 139.402 106.803 139.773 106.661C140.144 106.519 139.592 103.938 139.966 103.799C140.34 103.66 141.232 104.933 141.609 104.797C141.986 104.661 142.533 105.037 142.907 104.901C143.281 104.765 143.757 104.95 144.131 104.816C144.505 104.683 144.573 103.703 144.95 103.573C145.326 103.442 145.309 102.156 145.689 102.02C146.069 101.884 146.718 102.618 147.106 102.499C147.494 102.38 147.723 101.805 148.106 101.691C148.488 101.578 149.015 101.975 149.398 101.861C149.78 101.748 149.857 100.507 150.248 100.405C150.639 100.303 151.228 100.989 151.616 100.895C152.005 100.802 152.373 100.626 152.75 100.538C153.127 100.45 153.478 100.102 153.866 100.022C154.254 99.943 154.784 100.538 155.175 100.464C155.566 100.391 155.849 99.6937 156.243 99.6285C156.637 99.5634 157.056 99.6285 157.45 99.5719C157.844 99.5152 158.394 100.646 158.79 100.598C159.187 100.549 159.558 100.467 159.955 100.428C160.352 100.388 160.57 98.3677 160.966 98.3365C161.363 98.3054 161.904 100.345 162.304 100.32C162.703 100.294 163.069 100.037 163.468 100.02C163.868 100.003 164.236 98.991 164.636 98.9882C165.035 98.9854 165.446 98.379 165.845 98.3847C166.245 98.3904 166.616 99.7362 167.016 99.7504C167.415 99.7645 167.843 99.0449 168.242 99.0675C168.642 99.0902 168.985 99.8382 169.376 99.8694C169.767 99.9005 170.226 99.1752 170.637 99.2149C171.047 99.2545 171.529 98.5405 171.926 98.5887C172.322 98.6369 172.776 98.532 173.158 98.5887C173.541 98.6454 173.651 100.612 174.048 100.68C174.445 100.748 174.615 101.89 175.006 101.963C175.397 102.037 175.805 101.853 176.198 101.938C176.592 102.023 177.179 101.102 177.57 101.193C177.961 101.283 178.661 100.073 179.04 100.17C179.42 100.266 179.703 100.804 180.08 100.909C180.457 101.014 180.531 102.21 180.907 102.326C181.284 102.442 181.902 101.759 182.276 101.87C182.65 101.98 182.653 103.238 183.024 103.363C183.395 103.488 184.239 102.244 184.608 102.374C184.976 102.504 184.968 103.692 185.333 103.828C185.699 103.964 186.364 103.335 186.73 103.476C187.095 103.618 187.424 103.867 187.787 104.017C188.149 104.168 187.812 105.947 188.169 106.103C188.526 106.259 189.954 104.009 190.311 104.17C190.668 104.332 190.232 106.216 190.595 106.386C190.957 106.556 192.062 105.162 192.414 105.335C192.765 105.508 192.161 107.576 192.51 107.757C192.858 107.939 193.533 107.474 193.878 107.653C194.224 107.831 194.332 108.443 194.675 108.633C195.017 108.823 196.437 107.12 196.777 107.315C197.117 107.511 196.088 110.038 196.426 110.239C196.763 110.441 197.72 109.599 198.052 109.806C198.383 110.013 198.531 110.509 198.862 110.721C199.194 110.934 200.483 109.678 200.809 109.897C201.135 110.115 201.251 110.676 201.574 110.897C201.897 111.118 202.458 111.027 202.775 111.254C203.092 111.48 202.449 113.07 202.775 113.299C203.101 113.529 203.625 113.45 203.948 113.685C204.271 113.92 205.266 113.265 205.574 113.503C205.883 113.741 206.172 114.039 206.478 114.283C206.784 114.526 207.099 114.787 207.402 115.033C207.705 115.28 206.597 117.232 206.895 117.484C207.192 117.736 208.804 116.456 209.099 116.714C209.394 116.971 209.008 118.014 209.3 118.272C209.592 118.53 209.408 119.315 209.694 119.578C209.98 119.842 210.388 119.972 210.672 120.238C210.955 120.505 211.978 120.012 212.258 120.284C212.539 120.556 213.233 120.431 213.508 120.706C213.783 120.981 214.31 121.046 214.582 121.323C214.854 121.601 214.386 122.615 214.652 122.899C214.919 123.182 215.916 122.817 216.177 123.103C216.437 123.389 215.925 124.406 216.177 124.695C216.429 124.984 216.426 125.525 216.675 125.828C216.925 126.132 218.234 125.562 218.48 125.86C218.727 126.157 219.265 126.27 219.506 126.571C219.747 126.871 218.857 128.104 219.089 128.407C219.322 128.71 218.806 129.602 219.03 129.908C219.254 130.214 220.574 129.772 220.792 130.084C221.01 130.396 219.798 131.713 220.007 132.028C220.217 132.342 221.047 132.274 221.246 132.594C221.444 132.915 221.662 133.255 221.843 133.578C222.05 133.943 223.691 133.532 223.852 133.861C224.045 134.252 224.532 134.586 224.657 134.906C224.782 135.227 222.297 136.64 222.45 137.031C222.603 137.422 224.872 136.927 225.02 137.315C225.167 137.703 225.493 137.978 225.637 138.363C225.782 138.748 225.374 139.298 225.51 139.683C225.646 140.069 226.414 140.21 226.544 140.596C226.674 140.981 225.711 141.704 225.836 142.092C225.96 142.48 225.073 143.14 225.192 143.528C225.311 143.916 225.949 144.095 226.059 144.5C226.17 144.905 228.111 144.758 228.216 145.149C228.32 145.54 227.453 146.169 227.55 146.566C227.646 146.962 228.663 147.132 228.754 147.518C228.845 147.903 226.742 148.767 226.827 149.164C226.912 149.56 226.827 149.949 226.898 150.345C226.969 150.742 227.674 150.988 227.748 151.382C227.822 151.776 229.298 151.923 229.36 152.32C229.423 152.717 227.045 153.468 227.094 153.864C227.142 154.261 227.66 154.561 227.723 154.961C227.785 155.36 230.176 155.457 230.222 155.856C230.267 156.256 227.581 156.93 227.621 157.329C227.66 157.729 227.572 158.106 227.606 158.508C227.64 158.91 229.737 159.123 229.768 159.525C229.799 159.928 227.706 160.443 227.728 160.843C227.751 161.242 229.624 161.526 229.641 161.928C229.658 162.33 229.814 162.716 229.828 163.115C229.842 163.515 230.23 163.903 230.239 164.302C230.247 164.702 230.434 165.098 230.437 165.501C230.44 165.903 230.936 166.303 230.936 166.702C230.936 167.102 228.216 167.47 228.21 167.872C228.204 168.275 229.417 168.677 229.406 169.076C229.394 169.476 230.377 169.901 230.363 170.3C230.349 170.7 230.343 171.099 230.326 171.502C230.309 171.904 227.708 172.156 227.686 172.556C227.663 172.955 230.556 173.522 230.519 173.921C230.482 174.321 229.833 174.675 229.802 175.072C229.771 175.468 229.196 175.82 229.162 176.205C229.128 176.59 230.411 177.117 230.375 177.517C230.338 177.916 227.955 178.084 227.915 178.475C227.876 178.866 229.595 179.449 229.553 179.846C229.51 180.243 228.272 180.5 228.224 180.897C228.176 181.294 227.017 181.537 226.966 181.937" stroke="black" stroke-width="8.48" stroke-linecap="round" stroke-linejoin="round"/>
<path d="M106.21 188.38C106.188 187.989 108.704 187.453 108.681 187.057C108.658 186.66 107.089 186.357 107.069 185.963C107.049 185.569 108.12 185.113 108.1 184.73C108.08 184.348 108.741 183.914 108.724 183.521C108.707 183.127 106.358 182.841 106.341 182.447C106.324 182.053 108.041 181.597 108.041 181.194C108.041 180.792 107.925 180.412 107.91 180.019C107.896 179.625 108.171 179.225 108.157 178.831C108.143 178.438 106.304 178.1 106.293 177.698C106.281 177.296 108.197 176.848 108.185 176.466C108.174 176.083 106.698 175.715 106.689 175.332C106.681 174.95 106.582 174.545 106.576 174.151C106.57 173.757 106.369 173.363 106.363 172.969C106.358 172.575 106.514 172.176 106.511 171.782C106.508 171.388 107.165 170.989 107.165 170.598C107.165 170.207 106.616 169.807 106.616 169.413C106.616 169.02 106.259 168.623 106.261 168.229C106.264 167.835 105.876 167.43 105.882 167.039C105.887 166.648 106.429 166.251 106.448 165.86C106.468 165.469 108.106 165.107 108.114 164.727C108.123 164.347 105.664 163.877 105.675 163.475C105.686 163.072 107.95 162.747 107.95 162.35C107.95 161.953 108.024 161.568 108.044 161.177C108.063 160.786 108.327 160.409 108.355 160.018C108.384 159.627 106.111 159.094 106.137 158.703C106.162 158.312 106.494 157.927 106.519 157.536C106.545 157.145 108.024 156.859 108.055 156.468C108.086 156.077 107.633 155.641 107.667 155.252C107.701 154.864 107.851 154.479 107.891 154.091C107.93 153.703 107.644 153.269 107.689 152.881C107.735 152.493 107.075 152 107.123 151.614C107.171 151.229 107.273 150.824 107.33 150.439C107.386 150.053 109.214 149.931 109.276 149.549C109.338 149.166 108.103 148.546 108.174 148.163C108.245 147.781 109.429 147.597 109.508 147.228C109.588 146.86 107.97 146.075 108.058 145.698C108.146 145.322 109.429 145.214 109.528 144.848C109.627 144.483 109.395 143.998 109.506 143.622C109.616 143.245 108.678 142.488 108.803 142.134C108.928 141.78 111.393 142.245 111.534 141.888C111.676 141.531 110.05 140.409 110.208 140.063C110.367 139.717 111.594 139.87 111.781 139.539C111.968 139.207 112.653 139.142 112.852 138.788C113.05 138.434 111.803 137.295 112.002 136.943C112.2 136.592 112.067 136.071 112.271 135.722C112.475 135.374 114.682 136.244 114.889 135.898C115.096 135.552 113.628 134.223 113.835 133.881C114.042 133.538 114.096 133.11 114.308 132.77C114.521 132.43 116.334 133.118 116.546 132.77C116.759 132.421 115.161 130.948 115.379 130.614C115.597 130.279 117.598 131.127 117.816 130.792C118.034 130.458 116.232 128.786 116.456 128.455C116.68 128.123 116.739 127.684 116.974 127.358C117.209 127.032 118.408 127.387 118.637 127.075C118.867 126.763 118.204 125.783 118.436 125.463C118.669 125.143 118.918 124.817 119.153 124.497C119.388 124.176 120.048 124.165 120.286 123.848C120.524 123.53 121.352 123.666 121.595 123.355C121.839 123.043 121.312 122.1 121.55 121.791C121.788 121.482 122.301 121.363 122.553 121.06C122.805 120.757 124.451 121.626 124.709 121.329C124.967 121.031 125.52 121.014 125.78 120.72C126.041 120.425 126.007 119.887 126.273 119.586C126.54 119.286 126.557 118.799 126.84 118.515C127.123 118.232 126.812 117.382 127.092 117.099C127.373 116.815 127.755 116.643 128.038 116.371C128.322 116.099 128.653 115.869 128.945 115.608C129.237 115.348 129.968 115.608 130.268 115.342C130.569 115.076 130.093 113.886 130.399 113.642C130.705 113.398 130.982 113.075 131.3 112.837C131.617 112.599 132.932 113.812 133.257 113.594C133.583 113.376 133.289 112.223 133.623 112.021C133.957 111.82 134.799 112.557 135.144 112.373C135.49 112.189 135.745 111.959 136.102 111.806C136.459 111.653 135.992 109.457 136.357 109.321C136.723 109.185 137.439 109.973 137.816 109.834C138.193 109.695 138.788 110.168 139.162 110.027C139.536 109.885 140.046 110.134 140.42 109.993C140.794 109.851 141.27 110.038 141.653 109.899C142.035 109.76 141.97 108.483 142.344 108.349C142.718 108.216 143.336 108.766 143.71 108.633C144.084 108.5 143.962 106.978 144.339 106.845C144.715 106.712 144.905 106.018 145.279 105.89C145.653 105.763 146.393 106.715 146.772 106.59C147.152 106.465 147.824 107.295 148.203 107.176C148.583 107.057 148.3 104.751 148.685 104.626C149.07 104.502 149.594 104.862 149.977 104.754C150.359 104.646 151.02 105.556 151.394 105.457C151.768 105.357 152.442 106.437 152.83 106.343C153.218 106.25 153.49 105.777 153.878 105.689C154.267 105.601 154.162 103.193 154.561 103.113C154.961 103.034 155.649 104.53 156.043 104.465C156.437 104.4 156.916 104.944 157.31 104.884C157.703 104.825 158.083 104.813 158.48 104.762C158.876 104.711 159.046 102.779 159.435 102.742C159.823 102.705 160.452 104.981 160.851 104.947C161.251 104.913 161.497 103.128 161.897 103.102C162.296 103.077 162.662 102.201 163.061 102.184C163.461 102.167 163.911 104.091 164.316 104.085C164.722 104.08 165.098 103.017 165.501 103.02C165.903 103.023 166.328 102.085 166.728 102.096C167.127 102.108 167.51 102.921 167.909 102.946C168.309 102.972 168.736 102.686 169.136 102.714C169.535 102.742 169.96 102.637 170.36 102.677C170.759 102.717 171.136 103.048 171.533 103.096C171.93 103.145 172.009 105.459 172.403 105.516C172.797 105.573 173.635 102.751 174.029 102.819C174.423 102.887 174.596 104.201 174.998 104.278C175.4 104.354 175.825 104.199 176.219 104.278C176.613 104.357 177.239 103.428 177.636 103.516C178.033 103.604 178.429 103.674 178.806 103.768C179.183 103.861 179.211 105.349 179.585 105.454C179.959 105.559 180.177 106.205 180.549 106.304C180.92 106.403 181.849 104.743 182.22 104.859C182.591 104.975 182.351 107.001 182.719 107.125C183.087 107.25 183.81 106.358 184.175 106.488C184.541 106.618 184.388 108.162 184.742 108.301C185.096 108.44 185.617 108.157 185.98 108.301C186.343 108.446 187.281 107.182 187.638 107.332C187.995 107.482 188.357 107.675 188.714 107.831C189.071 107.987 189.414 108.211 189.768 108.372C190.122 108.534 189.964 109.789 190.315 109.967C190.666 110.146 190.771 110.783 191.12 110.956C191.468 111.129 192.474 110.013 192.82 110.191C193.165 110.37 193.279 111.004 193.619 111.191C193.959 111.378 194.185 111.789 194.517 111.982C194.848 112.174 195.698 111.494 196.036 111.698C196.373 111.902 197.044 111.562 197.376 111.764C197.707 111.965 197.407 113.22 197.738 113.427C198.07 113.634 199.175 112.65 199.501 112.86C199.827 113.07 199.94 113.648 200.263 113.866C200.586 114.084 200.96 114.26 201.28 114.481C201.6 114.702 201.714 115.249 202.028 115.475C202.343 115.702 202.079 116.742 202.394 116.971C202.708 117.201 202.241 118.456 202.549 118.691C202.858 118.926 204.598 117.311 204.904 117.558C205.21 117.804 205.471 118.124 205.771 118.365C206.071 118.606 206.097 119.215 206.394 119.462C206.692 119.708 206.315 120.765 206.61 121.014C206.904 121.264 207.743 120.904 208.026 121.162C208.31 121.42 209.406 120.808 209.692 121.068C209.978 121.329 210.418 121.468 210.701 121.731C210.984 121.995 210.899 122.683 211.18 122.952C211.46 123.222 211.16 124.106 211.432 124.369C211.704 124.633 210.865 126.032 211.126 126.307C211.387 126.582 211.846 126.675 212.109 126.956C212.373 127.236 212.71 127.443 212.959 127.727C213.208 128.01 213.832 127.976 214.092 128.262C214.353 128.548 214.149 129.237 214.398 129.529C214.648 129.82 215.342 129.738 215.586 130.033C215.829 130.328 217.807 129.242 218.045 129.54C218.283 129.837 218.382 130.311 218.612 130.614C218.841 130.917 217.195 132.676 217.419 132.982C217.643 133.288 219.564 132.416 219.779 132.719C219.994 133.022 219.827 133.674 220.034 133.985C220.241 134.297 221.269 134.175 221.451 134.49C221.632 134.804 220.827 135.83 221.009 136.147C221.215 136.513 221.4 136.87 221.558 137.19C221.751 137.581 222.723 137.643 222.845 137.961C222.966 138.278 222.102 139.051 222.238 139.442C222.36 139.791 222.451 140.171 222.575 140.562C222.7 140.953 224.151 140.893 224.275 141.287C224.4 141.681 224.159 142.137 224.275 142.531C224.392 142.925 222.901 143.684 222.998 144.075C223.094 144.466 223.281 144.783 223.386 145.174C223.491 145.565 223.972 145.829 224.054 146.22C224.137 146.611 225.718 146.682 225.794 147.07C225.871 147.458 225.599 147.92 225.669 148.305C225.74 148.69 225.256 149.155 225.321 149.563C225.386 149.971 226.12 150.235 226.171 150.626C226.222 151.017 224.417 151.663 224.471 152.042C224.525 152.422 226.349 152.581 226.398 152.977C226.446 153.374 224.873 153.938 224.916 154.332C224.958 154.725 225.944 155.003 225.981 155.397C226.018 155.791 224.564 156.304 224.598 156.697C224.632 157.091 224.882 157.44 224.91 157.831C224.938 158.222 225.242 158.579 225.267 158.964C225.293 159.349 224.7 159.766 224.7 160.16C224.7 160.554 227.375 160.803 227.392 161.197C227.409 161.591 224.771 162.084 224.785 162.477C224.8 162.871 225.315 163.228 225.324 163.611C225.332 163.993 225.695 164.376 225.701 164.77C225.706 165.163 226.672 165.532 226.675 165.928C226.678 166.325 224.562 166.713 224.562 167.107C224.562 167.501 224.615 167.875 224.613 168.269C224.61 168.663 226.664 169.062 226.658 169.456C226.653 169.85 225.134 170.207 225.125 170.589C225.117 170.972 225.975 171.385 225.975 171.779C225.975 172.173 224.579 172.505 224.559 172.913C224.539 173.321 225.89 173.737 225.873 174.131C225.856 174.525 225.406 174.887 225.386 175.278C225.366 175.669 225.763 176.077 225.74 176.468C225.718 176.859 224.862 177.191 224.836 177.585C224.811 177.979 225.023 178.372 224.995 178.766C224.967 179.16 225.715 179.596 225.684 179.987C225.652 180.378 226.347 180.837 226.315 181.217C226.284 181.597 226.531 182.022 226.497 182.416C226.463 182.809 224.292 182.996 224.256 183.387C224.219 183.778 226.684 184.407 226.644 184.804C226.604 185.201 225.644 185.49 225.601 185.881C225.559 186.272 224.916 186.592 224.873 186.983C224.831 187.374 223.717 187.632 223.672 188.026C223.627 188.419 223.672 188.805 223.635 189.196" stroke="black" stroke-width="8.48" stroke-linecap="round" stroke-linejoin="round"/>
<path d="M186.319 240.009C182.792 241.851 177.819 243.247 170.931 243.848C163.508 244.494 157.898 243.814 153.747 242.352C139.535 237.343 142.479 223.19 148.676 221.901C156.609 220.255 160.448 228.245 168.449 226.582C176.451 224.919 184.047 218.204 188.677 219.056C192.337 219.731 199.644 233.045 186.319 240.009Z" fill="black" stroke="black" stroke-width="5" stroke-linecap="round" stroke-linejoin="round"/>
<path d="M186.32 240.009C182.793 241.851 177.82 243.248 170.932 243.848C163.509 244.494 157.899 243.814 153.748 242.352C156.774 237.179 163.2 233.685 168.867 233.32C174.162 232.98 182.73 236.215 186.32 240.009Z" fill="#F2F2F2" stroke="black" stroke-width="5" stroke-linecap="round" stroke-linejoin="round"/>
</g>
<defs>
<clipPath id="clip0_441_1700">
<rect width="340" height="340" fill="white"/>
</clipPath>
</defs>
</svg>
