<svg width="111" height="124" viewBox="0 0 111 124" fill="none" xmlns="http://www.w3.org/2000/svg">
<path d="M55.8186 3.24907L26.9145 65.152C26.729 65.5494 26.6328 65.9826 26.6328 66.4212V115.113C26.6328 116.705 27.876 118.02 29.4652 118.109L97.0532 121.89C98.6105 121.977 99.9748 120.856 100.192 119.312L109.782 51.0107C110.048 49.1186 108.5 47.4636 106.595 47.6013L71.1533 50.1634C69.3755 50.2919 67.8784 48.8511 67.9387 47.0697L69.1924 10.0203C69.2266 9.00982 68.7495 8.05005 67.9232 7.46729L60.266 2.06672C58.7388 0.989635 56.6093 1.5558 55.8186 3.24907Z" stroke="#404040" stroke-width="2"/>
<path d="M5.51423 63.8198C5.65553 61.9984 7.01289 60.5042 8.81236 60.1891L28.5063 56.7408C30.9541 56.3123 33.1962 58.1959 33.1962 60.6809V118.007C33.1962 120.216 31.4053 122.007 29.1962 122.007H5.32235C2.99127 122.007 1.15402 120.021 1.33433 117.697L5.51423 63.8198Z" fill="#D54068" stroke="#D54068" stroke-width="2"/>
</svg>
