<svg width="54" height="83" viewBox="0 0 54 83" fill="none" xmlns="http://www.w3.org/2000/svg">
<path d="M37.8154 53.0295C38.1987 53.0115 38.5586 53.2144 38.7415 53.5517L51.1992 76.5233C51.5605 77.1896 51.0781 78 50.3201 78H6.63023C5.88392 78 5.4006 77.2121 5.73883 76.5468L16.9384 54.5183C17.1013 54.1979 17.4237 53.9896 17.7828 53.9727L37.8154 53.0295Z" fill="#708FFF" stroke="#708FFF" stroke-width="4"/>
<path d="M48.4414 81H4.67629C3.09128 81 2.13609 79.2442 2.99715 77.9135L50.1205 5.0865C50.9816 3.75578 50.0264 2 48.4414 2H4.67629C3.09128 2 2.13609 3.75578 2.99715 5.08651L50.1205 77.9135C50.9816 79.2442 50.0264 81 48.4414 81Z" stroke="#404040" stroke-width="4"/>
</svg>
