<svg width="340" height="340" viewBox="0 0 340 340" fill="none" xmlns="http://www.w3.org/2000/svg">
<rect width="340" height="340" fill="white"/>
<g clip-path="url(#clip0_441_1700)">
<path d="M298.916 339.726L280.06 339.745L254.889 339.773L234.104 339.795L214.038 339.816H212.338H211.205L198.871 339.83L182.721 339.847L165.438 339.866L146.885 339.885L134.79 339.899H132.005L41.083 340L41.2672 339.551C42.783 335.888 53.8047 310.609 71.2098 299.347C84.3877 290.82 104.858 281.076 115.908 276.012C119.374 274.428 121.915 273.298 123.009 272.818L123.598 272.563L144.162 272.418H144.298H145.083H145.854L151.118 272.382L194.468 272.081L199.548 272.045H200.155H200.653L205.527 272.015L222.034 271.9L222.436 272.037C223.768 272.492 228.278 274.033 234.379 276.245C240.212 278.354 247.497 281.071 254.855 284.015C262.55 287.097 270.317 290.428 276.584 293.584C283.432 297.035 288.484 300.273 289.671 302.741C294.06 311.89 298.454 337.25 298.848 339.581C298.916 339.666 298.916 339.726 298.916 339.726Z" fill="#F2F2F2" stroke="black" stroke-width="5" stroke-miterlimit="10"/>
<path d="M198.872 339.833L182.727 339.849L173.825 330.267L165.433 339.869L146.88 339.888L166.458 307.786H182.042L198.872 339.833Z" fill="#668BFF" stroke="black" stroke-width="5" stroke-miterlimit="10" stroke-linecap="round"/>
<path d="M151.133 271.349C133.883 271.184 121.833 291.401 173.904 291.747C225.975 292.092 216.758 269.813 194.446 269.813" fill="#F2F2F2"/>
<path d="M151.133 271.349C133.883 271.184 121.833 291.401 173.904 291.747C225.975 292.092 216.758 269.813 194.446 269.813" stroke="black" stroke-width="5" stroke-miterlimit="10"/>
<path d="M194.494 283.16V271.162V246.926H151.133V283.486" fill="#F2F2F2"/>
<path d="M194.494 283.16V271.162V246.926H151.133V283.486" stroke="black" stroke-width="5" stroke-miterlimit="10"/>
<path d="M150.883 261.92L150.529 269.813C150.529 269.813 150.342 269.896 150.022 270.052C149.852 270.134 149.639 270.241 149.396 270.37L149.362 270.384C149.22 270.458 149.078 270.534 148.903 270.622C148.356 270.913 147.704 271.28 146.985 271.719C146.626 271.933 146.256 272.162 145.877 272.407C143.358 274.03 140.434 276.322 138.827 279.006C138.819 279.023 138.81 279.04 138.799 279.056C138.509 279.538 138.266 280.046 138.074 280.572C138.045 280.64 138.02 280.709 137.994 280.775C137.686 281.646 137.559 282.567 137.623 283.486V283.486C137.623 283.522 137.623 283.557 137.623 283.596C137.622 283.603 137.622 283.61 137.623 283.618C137.655 283.989 137.724 284.356 137.827 284.714C137.827 284.714 137.827 284.731 137.827 284.742C137.9 285.03 137.995 285.312 138.111 285.586C140.743 291.804 145.548 311.185 148.381 322.941C149.452 327.388 142.361 326.026 142.361 326.026L134.954 339.561L134.762 339.912H132.005C131.979 339.797 131.951 339.682 131.925 339.561C129.31 327.882 121.833 293.693 121.833 283.522C121.833 275.963 122.496 273.548 123.012 272.829C123.335 272.369 123.601 272.574 123.601 272.574L150.883 261.92Z" fill="#F2F2F2" stroke="black" stroke-width="5" stroke-miterlimit="10"/>
<path d="M148.404 322.93C148.404 322.93 147.554 323.139 146.353 322.108C145.619 321.48 144.763 320.383 143.905 318.483C143.752 318.146 143.602 317.787 143.452 317.387C143.333 317.08 143.211 316.751 143.092 316.405C142.752 315.421 142.313 315.213 141.808 315.583C139.372 317.384 135.402 332.765 133.671 339.885" stroke="black" stroke-width="5" stroke-miterlimit="10"/>
<path d="M141.321 315.391C141.321 315.391 130.333 276.322 135.3 275.297C140.267 274.271 150.883 269.813 150.883 269.813" stroke="black" stroke-width="5" stroke-miterlimit="10"/>
<path d="M224.196 283.522C224.196 293.696 216.724 327.885 214.109 339.553C214.086 339.644 214.069 339.731 214.047 339.827H212.347H211.213L211.066 339.553L203.654 326.018C203.654 326.018 196.571 327.388 197.633 322.933C197.78 322.316 197.936 321.675 198.095 321.014C198.132 320.869 198.166 320.721 198.203 320.57C198.201 320.563 198.201 320.555 198.203 320.548C201.016 308.956 205.255 292.106 207.742 285.954C207.779 285.855 207.819 285.762 207.859 285.679" stroke="black" stroke-width="5" stroke-miterlimit="10"/>
<path d="M197.633 322.93C197.633 322.93 198.542 323.15 199.78 322.028C200.611 321.22 201.283 320.273 201.764 319.232V319.232C202.159 318.449 202.503 317.642 202.792 316.816C202.838 316.69 202.883 316.559 202.931 316.43C203.257 315.484 203.673 315.254 204.155 315.572C206.578 317.17 210.573 332.614 212.332 339.825" stroke="black" stroke-width="5" stroke-miterlimit="10"/>
<path d="M195.154 269.813C195.154 269.813 205.779 274.269 210.738 275.297C215.696 276.325 204.717 315.394 204.717 315.394C204.717 315.394 202.733 315.52 201.779 319.232C200.824 322.944 197.367 322.969 198.209 320.553C199.05 318.138 208.879 284.413 208.392 282.255C207.904 280.097 205.071 272.895 195.154 269.813Z" fill="black"/>
<path d="M150.75 269.813C150.75 269.813 140.125 274.269 135.167 275.297C130.208 276.325 141.188 315.394 141.188 315.394C141.188 315.394 143.171 315.52 144.123 319.232C145.075 322.944 148.534 322.969 147.696 320.553C146.857 318.138 137.025 284.413 137.513 282.255C138 280.097 140.833 272.895 150.75 269.813Z" fill="black"/>
<path d="M234.112 275.979C243.675 282.45 234.112 339.795 234.112 339.795" stroke="black" stroke-width="2" stroke-miterlimit="10"/>
<path d="M254.895 283.982C260.675 288.66 254.895 339.77 254.895 339.77" stroke="black" stroke-width="2" stroke-miterlimit="10"/>
<path d="M276.629 293.551C283.695 297.57 280.066 339.742 280.066 339.742" stroke="black" stroke-width="2" stroke-miterlimit="10"/>
<path d="M115.957 275.979C106.395 282.45 115.957 339.795 115.957 339.795" stroke="black" stroke-width="2" stroke-miterlimit="10"/>
<path d="M95.1711 286.088C89.394 290.765 95.1711 339.77 95.1711 339.77" stroke="black" stroke-width="2" stroke-miterlimit="10"/>
<path d="M73.437 298.083C66.3735 302.102 70.0002 339.756 70.0002 339.756" stroke="black" stroke-width="2" stroke-miterlimit="10"/>
<path d="M118.3 194.072C118.3 229.653 142.59 256.582 171.246 256.582C199.903 256.582 223.133 227.737 223.133 192.153C223.133 156.569 199.9 127.724 171.246 127.724C142.593 127.724 118.3 158.502 118.3 194.072Z" fill="#F2F2F2" stroke="black" stroke-width="5" stroke-miterlimit="10"/>
<path d="M195.188 190.045C197.634 190.045 199.617 188.126 199.617 185.759C199.617 183.393 197.634 181.474 195.188 181.474C192.742 181.474 190.76 183.393 190.76 185.759C190.76 188.126 192.742 190.045 195.188 190.045Z" fill="black"/>
<path d="M171.156 195.185C168.995 195.185 166.923 196.016 165.396 197.494C163.868 198.972 163.01 200.977 163.01 203.068C163.01 205.158 163.868 207.163 165.396 208.641C166.923 210.119 168.995 210.95 171.156 210.95" stroke="black" stroke-width="5" stroke-linecap="round" stroke-linejoin="round"/>
<path d="M208.578 173.107C204.442 164.355 197.197 160.829 186.62 164.539" stroke="black" stroke-width="8.23" stroke-linecap="round" stroke-linejoin="round"/>
<path d="M133.85 173.107C137.986 164.355 145.228 160.829 155.808 164.539" stroke="black" stroke-width="8.23" stroke-linecap="round" stroke-linejoin="round"/>
<path d="M187.694 237.632C184.727 239.14 180.542 240.286 174.754 240.79C168.52 241.338 163.786 240.79 160.304 239.608C148.336 235.562 150.784 224.033 155.991 222.969C162.658 221.612 165.908 228.11 172.637 226.739C179.366 225.368 185.741 219.885 189.637 220.57C192.711 221.113 198.899 231.934 187.694 237.632Z" fill="black" stroke="black" stroke-width="5" stroke-linecap="round" stroke-linejoin="round"/>
<path d="M187.694 237.632C184.727 239.14 180.542 240.286 174.754 240.79C168.52 241.338 163.786 240.79 160.304 239.608C162.854 235.389 168.237 232.532 172.991 232.222C177.451 231.935 184.665 234.55 187.694 237.632Z" fill="#F2F2F2" stroke="black" stroke-width="5" stroke-linecap="round" stroke-linejoin="round"/>
<path d="M119.362 205.724C117.345 187.443 125.879 165.112 141.675 155.346C150.175 150.088 154.742 152.221 165.05 144.722C177.698 135.516 185.946 129.988 185.946 129.988C185.946 129.988 193.65 164.44 219.946 180.024C226.131 183.689 232.755 181.31 234.821 185.507C237.277 190.5 231.016 196.77 220.654 211.896C208.187 230.076 202.022 239.285 204.717 245.138C208.4 253.147 226.001 256.626 233.758 250.279C240.065 245.116 237.232 235.603 236.592 219.778C236.218 210.558 236.827 203.169 237.878 196.945C242.128 171.78 244.834 166.291 244.737 155.349C244.531 132.593 220.654 116.28 211.092 113.196C206.133 89.8915 162.098 78.2257 140.258 90.9196C126.519 98.9034 130.231 111.381 105.904 136.843C93.7746 149.536 89.0089 158.663 84.6541 167.001C68.7166 197.502 77.9986 230.838 103.779 245.138C116.203 252.031 128.412 250.997 132.821 243.768C137.64 235.855 121.711 227.043 119.362 205.724Z" fill="#668BFF" stroke="black" stroke-width="5" stroke-miterlimit="10" stroke-linecap="round"/>
<path d="M222.07 207.438H228.267C230.074 207.463 231.868 207.14 233.545 206.489C235.223 205.837 236.749 204.869 238.036 203.641C239.323 202.414 240.346 200.95 241.043 199.337C241.741 197.724 242.1 195.992 242.1 194.243C242.1 192.495 241.741 190.763 241.043 189.15C240.346 187.537 239.323 186.073 238.036 184.846C236.749 183.618 235.223 182.65 233.545 181.998C231.868 181.347 230.074 181.024 228.267 181.049H222.07C222.07 181.049 223.47 198.692 222.07 207.438Z" fill="#F2F2F2" stroke="black" stroke-width="5" stroke-miterlimit="10"/>
<path d="M208.055 195.062L215.189 197.535" stroke="black" stroke-width="5" stroke-miterlimit="10" stroke-linecap="round"/>
<path d="M212.305 190.949L219.439 193.422" stroke="black" stroke-width="5" stroke-miterlimit="10" stroke-linecap="round"/>
<path d="M133.73 195.062L126.596 197.535" stroke="black" stroke-width="5" stroke-miterlimit="10" stroke-linecap="round"/>
<path d="M129.48 190.949L122.346 193.422" stroke="black" stroke-width="5" stroke-miterlimit="10" stroke-linecap="round"/>
<path d="M213.939 114.994C212.454 113.974 210.493 113.843 208.688 114.098" stroke="black" stroke-width="5" stroke-miterlimit="10"/>
<path d="M135.818 103.194C134.181 118.92 125.726 133.876 112.928 143.697" stroke="black" stroke-width="5" stroke-miterlimit="10" stroke-linecap="round"/>
<path d="M139.629 98.5085C148.129 92.0793 159.833 89.3266 171.473 94.9196C183.112 100.513 183.976 109.398 190.416 116.332" stroke="black" stroke-width="5" stroke-miterlimit="10" stroke-linecap="round"/>
<path d="M185.161 97.7327C188.774 97.9739 191.655 100.691 193.859 103.471C196.064 106.251 198.07 109.366 201.226 111.074" stroke="black" stroke-width="5" stroke-miterlimit="10" stroke-linecap="round"/>
<path d="M210.012 123.343C219.045 126.546 226.526 132.882 231.004 141.121C235.481 149.361 236.635 158.916 234.242 167.933" stroke="black" stroke-width="5" stroke-miterlimit="10" stroke-linecap="round"/>
<path d="M218.911 141.029C228.216 146.49 217.732 156.846 226.434 161.986" stroke="black" stroke-width="5" stroke-miterlimit="10" stroke-linecap="round"/>
<path d="M101.433 154.014C96.9843 164.624 87.4614 173.09 85.0418 184.301C83.6832 190.722 84.8105 197.403 88.2094 203.073" stroke="black" stroke-width="5" stroke-miterlimit="10" stroke-linecap="round"/>
<path d="M89.502 189.543C97.2426 205.192 83.6879 213.53 97.6704 227.756" stroke="black" stroke-width="5" stroke-miterlimit="10" stroke-linecap="round"/>
<path d="M168.016 133.931C164.168 137.907 159.501 141.058 154.317 143.183C149.133 145.308 143.547 146.359 137.918 146.268" stroke="black" stroke-width="5" stroke-miterlimit="10" stroke-linecap="round"/>
<path d="M143.44 139.88C140.048 140.194 136.721 140.987 133.566 142.235C131.695 142.936 129.938 143.895 128.35 145.081C121.148 150.685 120.612 161.531 113.942 167.717" stroke="black" stroke-width="5" stroke-miterlimit="10" stroke-linecap="round"/>
<path d="M177.454 127.864L187.371 123.732C187.678 125.96 188.477 128.099 189.712 130.003C190.947 131.908 192.59 133.533 194.531 134.77" stroke="black" stroke-width="5" stroke-miterlimit="10" stroke-linecap="round"/>
<path d="M215.582 227.984C213.599 229.842 211.616 231.734 210.225 234.035C208.833 236.335 208.111 239.145 208.882 241.711C210.015 245.478 213.999 247.743 217.866 248.924" stroke="black" stroke-width="5" stroke-miterlimit="10" stroke-linecap="round"/>
<path d="M224.742 233.097C225.308 235.681 225.14 238.365 224.258 240.864C223.995 241.716 223.543 242.501 222.935 243.167C221.101 245.004 217.594 244.491 216.01 242.449C214.426 240.406 214.639 237.399 216.064 235.249" stroke="black" stroke-width="5" stroke-miterlimit="10" stroke-linecap="round"/>
<path d="M124.845 231.954C126.674 233.421 127.872 235.497 128.203 237.774C128.486 240.033 127.678 242.435 125.936 243.97C124.276 245.437 121.927 246.013 119.677 245.953C113.206 245.774 107.42 240.091 107.338 233.826" stroke="black" stroke-width="5" stroke-miterlimit="10" stroke-linecap="round"/>
<path d="M113.834 209.576L118.396 225.154C119.181 227.833 119.974 230.588 119.688 233.357C119.572 234.454 119.269 235.581 118.569 236.458C117.869 237.336 116.71 237.93 115.58 237.752C114.844 237.603 114.171 237.247 113.644 236.73C111.004 234.358 110.706 229.947 113.007 227.263" stroke="black" stroke-width="5" stroke-miterlimit="10" stroke-linecap="round"/>
<path d="M198.616 184.273C199.976 184.306 202.81 182.593 202.81 181.907Z" fill="#F2F2F2"/>
<path d="M198.616 184.273C199.976 184.306 202.81 182.593 202.81 181.907" stroke="black" stroke-width="3" stroke-linecap="round" stroke-linejoin="round"/>
<path d="M196.146 183.254C197.506 183.286 200.339 181.573 200.339 180.887Z" fill="#F2F2F2"/>
<path d="M196.146 183.254C197.506 183.286 200.339 181.573 200.339 180.887" stroke="black" stroke-width="3" stroke-linecap="round" stroke-linejoin="round"/>
<path d="M150.246 189.285C152.692 189.285 154.674 187.366 154.674 185C154.674 182.633 152.692 180.715 150.246 180.715C147.8 180.715 145.817 182.633 145.817 185C145.817 187.366 147.8 189.285 150.246 189.285Z" fill="black"/>
<path d="M146.806 183.522C145.446 183.555 142.612 181.841 142.612 181.156Z" fill="#F2F2F2"/>
<path d="M146.806 183.522C145.446 183.555 142.612 181.841 142.612 181.156" stroke="black" stroke-width="3" stroke-linecap="round" stroke-linejoin="round"/>
<path d="M149.285 182.494C147.925 182.527 145.092 180.813 145.092 180.128Z" fill="#F2F2F2"/>
<path d="M149.285 182.494C147.925 182.527 145.092 180.813 145.092 180.128" stroke="black" stroke-width="3" stroke-linecap="round" stroke-linejoin="round"/>
</g>
<defs>
<clipPath id="clip0_441_1700">
<rect width="340" height="329" fill="white" transform="translate(0 11)"/>
</clipPath>
</defs>
</svg>
