<svg width="340" height="340" viewBox="0 0 340 340" fill="none" xmlns="http://www.w3.org/2000/svg">
<rect width="340" height="340" fill="white"/>
<g clip-path="url(#clip0_441_1700)">
<path d="M314.622 340H25.3779C25.8256 325.352 27.4406 309.834 32.2091 307.958C41.4883 304.314 114.112 265.852 121.15 260.791C123.967 258.766 127.834 256.774 132.163 254.898C135.606 253.408 139.343 251.985 143.083 250.676C143.548 250.512 144.01 250.353 144.474 250.195C149.277 248.549 154.028 247.095 158.1 245.916C165.024 243.913 170 242.706 170 242.706C170 242.706 173.553 243.556 178.826 245.041C183.39 246.319 189.249 248.056 195.208 250.087L195.446 250.169C199.75 251.643 204.099 253.272 208.049 254.986C210.891 256.196 213.654 257.584 216.322 259.142C217.008 259.553 217.659 259.967 218.268 260.381C218.467 260.517 218.662 260.664 218.835 260.786C225.873 265.846 298.497 304.309 307.776 307.952C312.559 309.834 314.174 325.352 314.622 340Z" fill="#F2F2F2" stroke="black" stroke-width="5" stroke-linecap="round" stroke-linejoin="round"/>
<path d="M195.446 296.965C195.446 317.586 143.083 317.586 143.083 296.965V228.398H195.446V296.965Z" fill="#F2F2F2" stroke="black" stroke-width="5" stroke-linecap="round" stroke-linejoin="round"/>
<path d="M159.233 340H130.985C119.583 326.23 109.423 313.446 108.661 310.715C106.924 304.481 138.949 285.824 136.864 284.385C134.779 282.945 111.591 282.472 110.996 278.641C110.741 277.009 115.546 269.209 121.15 260.791C128.693 249.458 137.683 236.991 137.683 236.991C138.706 235.518 139.584 234.796 140.335 234.691C141.55 234.509 142.437 235.929 143.083 238.36C143.842 241.222 144.259 245.489 144.474 250.189C144.99 261.477 144.318 275.267 144.327 278.157C144.327 279.633 146.044 287.224 148.577 297.679C149.393 301.045 150.294 304.702 151.252 308.55C153.708 318.404 156.527 329.488 159.233 340Z" fill="#668BFF" stroke="black" stroke-width="5" stroke-miterlimit="10" stroke-linecap="round"/>
<path d="M231.019 310.715C230.259 313.446 220.096 326.23 208.698 340H180.455C183.226 329.233 186.122 317.832 188.615 307.799C189.377 304.728 190.103 301.79 190.774 299.016C193.491 287.87 195.353 279.693 195.356 278.151C195.356 275.253 194.69 261.386 195.208 250.076C195.271 248.744 195.347 247.449 195.446 246.211C195.769 242.157 196.296 238.723 197.146 236.68C198.203 234.13 199.75 233.75 201.997 236.986C201.997 236.986 210.276 248.455 217.614 259.397L218.266 260.375C223.978 268.946 228.945 276.975 228.684 278.63C228.089 282.461 204.901 282.94 202.813 284.373C200.725 285.807 232.758 304.49 231.019 310.715Z" fill="#668BFF" stroke="black" stroke-width="5" stroke-miterlimit="10" stroke-linecap="round"/>
<path d="M230.752 165.183C230.752 209.777 185.336 245.933 169.552 248.673C153.767 251.413 106.456 209.777 106.456 165.183C106.456 120.59 134.279 84.4333 168.602 84.4333C202.925 84.4333 230.752 120.59 230.752 165.183Z" fill="#F2F2F2" stroke="black" stroke-width="5" stroke-linecap="round" stroke-linejoin="round"/>
<path d="M144.55 97.2486C147.015 99.1299 144.978 101.011 147.44 102.893C152.438 97.3399 158.591 92.9484 165.466 90.0264C166.65 89.5249 167.934 89.0631 169.192 89.3209C170.359 89.5617 171.311 90.3919 172.124 91.2646C174.054 93.3686 175.503 95.8678 176.369 98.5883C177.235 101.309 177.498 104.185 177.139 107.018L184.316 102.638C186.792 110.85 191.343 118.286 197.531 124.228L199.684 117.671C211.301 123.956 219.155 136.074 222.068 148.985C224.98 161.897 223.804 186.286 227.423 184.484C221.827 198.243 217.155 209.46 207.856 221.034C210.122 221.456 199.696 225.814 201.339 224.19C193.737 232.274 196.131 238.19 199.922 248.628C202.342 255.281 212.672 259.961 219.71 259.516C226.924 259.069 232.911 254.068 238.662 249.682C244.414 245.296 251.37 241.117 258.436 242.618C255.518 234.781 261.576 227.174 264.174 220.147C266.947 212.61 268.663 204.726 269.274 196.718C270.484 181.059 267.543 165.03 260.425 150.997C257.442 145.109 253.654 138.964 254.623 132.433L260.099 135.904C262.261 128.455 258.416 120.689 254.368 114.07C245.477 99.5351 244.389 82.9912 233.038 69.4677C223.906 58.5877 212.004 49.8412 198.364 45.5884C179.502 39.7064 157.371 43.2707 142.879 56.7007C141.777 57.7207 140.612 58.8484 139.11 59.0127C137.878 59.1487 136.688 58.5877 135.546 58.0976C124.38 53.2809 110.896 54.2896 100.557 60.7042C92.2414 65.8666 86.2801 73.9926 80.5313 81.9174L90.9466 80.6424C85.8971 88.2413 81.2689 96.1119 77.0831 104.219C74.4991 109.222 72.0596 114.393 71.0849 119.938C69.9176 126.605 70.9263 133.442 70.7591 140.208C70.5608 148.294 66.2654 154.204 64.7043 161.781C63.761 166.195 63.503 170.729 63.9393 175.222C64.1263 176.964 68.0504 187.247 67.6821 187.861C68.3096 186.838 69.1577 185.967 70.1645 185.314C71.1714 184.66 72.3115 184.239 73.5018 184.082C72.4648 195.132 71.5184 206.748 76.0518 216.869C77.9813 221.17 80.7919 225.448 83.7953 229.078C86.0761 231.832 87.7279 235.099 83.8916 237.861C85.3678 236.802 90.9749 242.009 91.8448 242.981C94.1766 245.605 94.7716 248.849 96.6189 251.637C100.586 257.604 108.958 261.253 115.886 261.358C124.55 261.491 141.102 257.958 144.661 250.053C148.22 242.148 145.67 232.926 138.994 227.386C138.544 228.341 135.215 226.647 134.761 227.602C124.632 217.81 115.883 206.216 110.709 187C112.429 187.026 112.486 166.405 111.868 156.086C111.185 144.616 110.287 133.929 119.892 126.956C125.196 123.106 129.565 119.306 133.209 113.756C134.152 112.345 143.689 96.5912 144.55 97.2486Z" fill="#070606"/>
<path d="M176.567 165.934C174.957 166.283 173.541 169.467 175.312 172.658C177.082 175.848 177.082 170.176 177.082 170.176L176.567 165.934Z" fill="#F2F2F2" stroke="black" stroke-width="5" stroke-linecap="round" stroke-linejoin="round"/>
<path d="M158.717 165.934C160.326 166.283 161.743 169.47 159.972 172.658C158.201 175.845 158.201 170.176 158.201 170.176L158.717 165.934Z" fill="#F2F2F2" stroke="black" stroke-width="5" stroke-linecap="round" stroke-linejoin="round"/>
<path d="M118.237 153.547C118.237 148.146 159.958 148.146 159.958 153.547C159.958 153.547 159.958 188.748 139.096 188.748C118.234 188.748 118.237 153.547 118.237 153.547Z" fill="#F2F2F2" stroke="black" stroke-width="5" stroke-linecap="round" stroke-linejoin="round"/>
<path d="M175.232 153.547C175.232 148.146 216.953 148.146 216.953 153.547C216.953 153.547 216.953 188.748 196.091 188.748C175.23 188.748 175.232 153.547 175.232 153.547Z" fill="#F2F2F2" stroke="black" stroke-width="5" stroke-linecap="round" stroke-linejoin="round"/>
<path d="M175.777 160.999C175.777 155.938 159.414 155.938 159.414 160.999Z" fill="#F2F2F2"/>
<path d="M175.777 160.999C175.777 155.938 159.414 155.938 159.414 160.999" stroke="black" stroke-width="5" stroke-linecap="round" stroke-linejoin="round"/>
<path d="M214.715 151.62L222.478 152.448" stroke="black" stroke-width="5" stroke-linecap="round" stroke-linejoin="round"/>
<path d="M118.991 151.952L109.055 152.943" stroke="black" stroke-width="5" stroke-linecap="round" stroke-linejoin="round"/>
<path d="M156.465 185.017C154.89 185.017 154.482 188.558 156.465 189.74C158.448 190.921 162.205 186.017 163.477 188.357C164.982 191.134 169.178 192.123 171.195 188.19C172.484 185.677 175.343 189.151 177.519 188.856C179.695 188.561 179.653 184.45 177.689 183.691" stroke="black" stroke-width="5.02" stroke-linecap="round" stroke-linejoin="round"/>
<path d="M155.374 207.649C156.224 220.64 178.265 220.64 178.916 207.649" stroke="black" stroke-width="6.56" stroke-linecap="round" stroke-linejoin="round"/>
<path d="M194.57 170.071C196.661 170.071 198.356 167.77 198.356 164.931C198.356 162.093 196.661 159.792 194.57 159.792C192.48 159.792 190.785 162.093 190.785 164.931C190.785 167.77 192.48 170.071 194.57 170.071Z" fill="black"/>
<path d="M196.602 161.857C197.877 161.888 200.526 160.231 200.526 159.571Z" fill="#F2F2F2"/>
<path d="M196.602 161.857C197.877 161.888 200.526 160.231 200.526 159.571" stroke="black" stroke-width="3" stroke-linecap="round" stroke-linejoin="round"/>
<path d="M194.284 160.863C195.556 160.894 198.206 159.239 198.206 158.576Z" fill="#F2F2F2"/>
<path d="M194.284 160.863C195.556 160.894 198.206 159.239 198.206 158.576" stroke="black" stroke-width="3" stroke-linecap="round" stroke-linejoin="round"/>
<path d="M139.72 170.071C141.81 170.071 143.505 167.77 143.505 164.931C143.505 162.093 141.81 159.792 139.72 159.792C137.629 159.792 135.935 162.093 135.935 164.931C135.935 167.77 137.629 170.071 139.72 170.071Z" fill="black"/>
<path d="M137.7 161.857C136.427 161.888 133.778 160.231 133.778 159.571Z" fill="#F2F2F2"/>
<path d="M137.7 161.857C136.427 161.888 133.778 160.231 133.778 159.571" stroke="black" stroke-width="3" stroke-linecap="round" stroke-linejoin="round"/>
<path d="M140.006 160.863C138.734 160.894 136.082 159.239 136.082 158.576Z" fill="#F2F2F2"/>
<path d="M140.006 160.863C138.734 160.894 136.082 159.239 136.082 158.576" stroke="black" stroke-width="3" stroke-linecap="round" stroke-linejoin="round"/>
<path d="M123.097 144.543C126.106 136.683 153.266 136.289 155.55 144.543Z" fill="#F2F2F2"/>
<path d="M123.097 144.543C126.106 136.683 153.266 136.289 155.55 144.543" stroke="black" stroke-width="5" stroke-linecap="round" stroke-linejoin="round"/>
<path d="M211.766 144.543C208.757 136.683 181.599 136.289 179.315 144.543Z" fill="#F2F2F2"/>
<path d="M211.766 144.543C208.757 136.683 181.599 136.289 179.315 144.543" stroke="black" stroke-width="5" stroke-linecap="round" stroke-linejoin="round"/>
<path d="M229.006 151.498C229.006 151.498 243.785 150.229 243.785 166.334C243.785 182.438 226.986 188.556 226.986 188.556L229.006 151.498Z" fill="#F2F2F2" stroke="black" stroke-width="5" stroke-linecap="round" stroke-linejoin="round"/>
<path d="M108.613 151.498C108.613 151.498 93.834 150.229 93.834 166.334C93.834 182.438 110.633 188.556 110.633 188.556L108.613 151.498Z" fill="#F2F2F2" stroke="black" stroke-width="5" stroke-linecap="round" stroke-linejoin="round"/>
<path d="M211.219 185.113C211.219 185.113 212.42 186.564 213.143 187.289" stroke="black" stroke-width="5" stroke-linecap="round" stroke-linejoin="round"/>
<path d="M213.275 182.028C213.275 182.028 214.477 183.475 215.199 184.201" stroke="black" stroke-width="5" stroke-linecap="round" stroke-linejoin="round"/>
<path d="M122.966 185.113C122.966 185.113 121.762 186.564 121.039 187.289" stroke="black" stroke-width="5" stroke-linecap="round" stroke-linejoin="round"/>
<path d="M120.892 182.028C120.892 182.028 119.69 183.475 118.968 184.201" stroke="black" stroke-width="5" stroke-linecap="round" stroke-linejoin="round"/>
<path d="M190.575 196.934C191.295 196.934 191.878 196.35 191.878 195.63C191.878 194.911 191.295 194.327 190.575 194.327C189.855 194.327 189.271 194.911 189.271 195.63C189.271 196.35 189.855 196.934 190.575 196.934Z" fill="black"/>
</g>
<defs>
<clipPath id="clip0_441_1700">
<rect width="340" height="340" fill="white"/>
</clipPath>
</defs>
</svg>
